<?xml version="1.0" encoding="utf-8"?>
<!-- Generator: Adobe Illustrator 23.0.1, SVG Export Plug-In . SVG Version: 6.00 Build 0)  -->
<svg version="1.1" xmlns="http://www.w3.org/2000/svg" xmlns:xlink="http://www.w3.org/1999/xlink" x="0px" y="0px"
	 viewBox="0 0 39.5 37.3" style="enable-background:new 0 0 39.5 37.3;" xml:space="preserve">
<style type="text/css">
	.st0{fill:#626A77;}
	.st1{fill:#717A89;}
	.st2{fill:#F7C219;}
</style>
<g>
	<g>
		<path class="st0" d="M33.6,17.5v13.8c0,1.1,0.9,2,2,2h4V17.5H33.6z M36.6,31.3c-0.6,0-1-0.4-1-1s0.4-1,1-1s1,0.4,1,1
			C37.6,30.9,37.2,31.3,36.6,31.3C36.6,31.3,36.6,31.3,36.6,31.3L36.6,31.3z"/>
		<path class="st0" d="M29.9,30.5L20.7,23l-1.9,1.7c-1.9,1.6-4.7,1.3-6.3-0.6c-1.5-1.8-1.4-4.4,0.3-6l1.7-1.6
			c-1.2-0.7-2.2-1.6-3-2.6l-0.2,0.2l-3.4,3.4v13.8H9l5.6,5.1c1.7,1.4,4.2,1.1,5.6-0.6l0,0l1.1,1c1,0.8,2.4,0.7,3.2-0.3l0,0l2-2.5
			l0.3,0.3c0.8,0.7,2.1,0.6,2.8-0.3l0.6-0.7C30.9,32.4,30.7,31.2,29.9,30.5z"/>
		<path class="st1" d="M28.2,14.1c-0.3-0.3-0.6-0.5-1-0.5c-1.8,2.6-4.8,4.2-8,4.2c-0.9,0-1.8-0.1-2.7-0.4l-2.4,2.2l0,0
			c-1,0.9-1.1,2.5-0.2,3.5c0,0,0,0,0,0c0.9,0.9,2.4,1,3.5,0.2l0,0l4.9-4.5c0.5-0.3,1.1-0.2,1.4,0.3c0.3,0.4,0.2,0.9-0.1,1.2
			l-1.6,1.5l9,7.3c0.2,0.1,0.3,0.3,0.5,0.5v-12L28.2,14.1z"/>
		<path class="st1" d="M0,33.3h4c1.1,0,2-0.9,2-2V17.5H0V33.3z M3,29.4c0.6,0,1,0.4,1,1s-0.4,1-1,1s-1-0.4-1-1S2.4,29.4,3,29.4z"/>
		<circle class="st1" cx="19.2" cy="8.1" r="8.1"/>
		<rect x="3.8" y="3.5" transform="matrix(0.7071 -0.7071 0.7071 0.7071 -1.7313 4.5209)" class="st2" width="1.7" height="1.7"/>
		<rect x="29.3" y="3.4" transform="matrix(0.7071 -0.7071 0.7071 0.7071 5.6235 23.0106)" class="st2" width="2.6" height="2.6"/>
		<rect x="6.7" y="11.5" transform="matrix(0.7071 -0.7071 0.7071 0.7071 -6.5068 8.9827)" class="st1" width="1.7" height="1.7"/>
	</g>
</g>
</svg>
