<svg xmlns="http://www.w3.org/2000/svg" viewBox="0 0 126.75 149.26">
    <g >
        <g >
            <polygon fill="#eabb4e" points="15.18 74.71 0 65.77 0 111.95 38.63 134.69 38.63 116.54 15.18 102.74 15.18 74.71"/>
            <polygon fill="#eabb4e" points="126.75 111.95 126.75 66.09 111.76 74.92 111.76 102.74 88.36 116.52 88.36 134.56 126.75 111.95"/>
            <polygon fill="#eabb4e" points="78.69 122.21 63.47 131.17 49.38 122.88 49.38 141.02 63.38 149.26 78.69 140.25 78.69 122.21"/>
            <polygon fill="#eabb4e" points="113.04 29.24 98.28 37.93 111.76 45.87 111.76 63.34 126.75 54.51 126.75 37.32 113.04 29.24"/>
            <polygon fill="#eabb4e" points="63.38 0 24.59 22.84 39.44 31.58 63.47 17.43 87.69 31.7 102.45 23.01 63.38 0"/>
            <polygon fill="#eabb4e" points="14.55 28.75 0 37.32 0 53.55 15.18 62.48 15.18 45.87 29.4 37.49 14.55 28.75"/>
            <polygon fill="#eabb4e" points="88.19 88.84 88.19 105.77 102.72 97.38 102.72 80.29 88.19 88.84"/>
            <polygon fill="#eabb4e" points="77.76 37.59 63.43 29.32 49.62 37.29 63.95 45.73 77.76 37.59"/>
            <polygon fill="#eabb4e" points="24.13 97.38 38.74 105.81 38.74 88.89 24.13 80.28 24.13 97.38"/>
            <polygon fill="#eabb4e" points="88.45 43.76 64.49 57.87 39.48 43.14 24.13 52 24.13 68.06 49.5 83 49.5 112.02 63.43 120.07 78.53 111.35 78.53 82.95 102.72 68.7 102.72 52 88.45 43.76"/>
        </g>
    </g>
</svg>
