<svg xmlns="http://www.w3.org/2000/svg" viewBox="0 0 200.45 182.96"><defs><style>.cls-1{fill:#797f8c;}.cls-2{fill:#f3b306;}</style></defs><g id="layer_2" data-name="layer 2"><g id="layer_2-2" data-name="layer 2"><path class="cls-1" d="M148.18,28.64a21.54,21.54,0,0,1,3.18,40.45,10.4,10.4,0,0,0-2.27,1.36,2.39,2.39,0,0,0-.91,1.82c0,.46-.45.46-.45.91v4.09a1.69,1.69,0,0,0,.45,1.37,7.26,7.26,0,0,0,5.46,4.09,42.94,42.94,0,0,1,6,2,53.58,53.58,0,0,1,40.8,47v-7.66a58.3,58.3,0,0,0-31.36-50.45h0a35.26,35.26,0,0,0,9.09-24.09A35.6,35.6,0,0,0,151.82,15a7.26,7.26,0,0,0-8.64,5A7.26,7.26,0,0,0,148.18,28.64Z"/><path class="cls-1" d="M95.06,149.55H42.73v-7.28a57.26,57.26,0,0,1,79.42-52.81,53.35,53.35,0,0,1,18.13-5.72,71.78,71.78,0,0,0-13.92-7.38,42.73,42.73,0,1,0-52.72,0,71.5,71.5,0,0,0-45,66.37v14.09a7.18,7.18,0,0,0,7.27,7.27H101A53.41,53.41,0,0,1,95.06,149.55ZM71.36,42.73A28.64,28.64,0,1,1,100,71.36,28.52,28.52,0,0,1,71.36,42.73Z"/><path class="cls-1" d="M52.27,78.64a1.67,1.67,0,0,1,.46-1.37V73.18c0-.45-.46-.45-.46-.91-.45-.45-.45-1.36-.91-1.82a3.86,3.86,0,0,0-2.27-1.36,21.46,21.46,0,0,1,3.64-40.45c3.63-.91,6.36-5,5.45-8.64s-5-6.36-8.63-5.45A35.91,35.91,0,0,0,22.27,49.09a37.57,37.57,0,0,0,9.09,24.09A58,58,0,0,0,0,124.55v10.9a7.18,7.18,0,0,0,7.27,7.28,7.19,7.19,0,0,0,7.28-7.28v-10.9A42.35,42.35,0,0,1,46.82,83.18,7.82,7.82,0,0,0,52.27,78.64Z"/></g><g id="layer_3" data-name="layer 3"><path class="cls-2" d="M159.69,142.39c1.12,0,1.95.59,1.95,2.12v5.61c0,1.53-.83,2.13-1.95,2.13s-1.94-.61-1.94-2.13v-5.61C157.75,143,158.57,142.39,159.69,142.39Z"/><path class="cls-2" d="M147.83,92.33a45.32,45.32,0,1,0,45.32,45.32A45.37,45.37,0,0,0,147.83,92.33ZM128,130.93V125c0-4.9,3.79-7.19,8-7.19h0c4.17,0,8,2.28,8,7.19v5.93c0,4.9-3.79,7.19-8,7.19S128,135.84,128,130.93ZM143.82,157h-5.69L152,118.25h5.67Zm23.83-6.75c0,4.9-3.79,7.19-8,7.19s-8-2.29-8-7.19v-5.94c0-4.9,3.8-7.19,8-7.19h0c4.18,0,8,2.29,8,7.19Z"/><path class="cls-2" d="M136,123c1.11,0,1.94.6,1.94,2.12v5.61c0,1.53-.83,2.13-1.94,2.13s-2-.6-2-2.13v-5.61C134,123.63,134.84,123,136,123Z"/></g></g></svg>
