<svg xmlns="http://www.w3.org/2000/svg" viewBox="0 0 133.02 27.92">
  <defs><style>.cls-1{fill:#2a6ef6;}</style></defs>
  <g id="layer_2" data-name="layer 2"><g id="layer_1-2" data-name="layer 1"><path class="cls-1" d="M15.68,23.55V21.64a7.71,7.71,0,1,0-6.12-3.05l1.38-1.35a5.78,5.78,0,1,1,4.75,2.48h0V17.8a3.84,3.84,0,1,0-3.35-1.93l1.44-1.4a1.46,1.46,0,0,1-.07-.51,2,2,0,1,1,2,2,1.88,1.88,0,0,1-.57-.09l-5,4.83a.44.44,0,0,1-.15.12s0,0-.05,0l-.12.06-.07,0-.11,0-.06,0H9.3l-.11,0-.07,0L9,20.82l-.06,0a.34.34,0,0,1-.09-.08.08.08,0,0,1,0-.05,9.59,9.59,0,1,1,6.87,2.91Zm15.3-11L24.53,1.37A2.78,2.78,0,0,0,22.13,0H9.22a2.78,2.78,0,0,0-2.4,1.39L.37,12.57a2.79,2.79,0,0,0,0,2.77L6.82,26.53a2.76,2.76,0,0,0,2.4,1.39H22.13a2.78,2.78,0,0,0,2.4-1.39L31,15.34A2.81,2.81,0,0,0,31,12.56Z"/><path class="cls-1" d="M42.86,17.15H41.32V9.2h1.53c2.59,0,4.25,1.49,4.25,3.94a3.9,3.9,0,0,1-4.25,4Zm-4.11,2.32h4.13c4,.06,6.94-2.69,6.88-6.34s-2.89-6.31-6.88-6.27H38.75Z"/><path class="cls-1" d="M56.64,15.94a1.88,1.88,0,0,1-1.89,1.87h-.1c-.82,0-1.36-.4-1.36-1s.48-1,1.32-1h2Zm2.59,3.54V13.87a3.71,3.71,0,0,0-3.35-4,4.09,4.09,0,0,0-.7,0A5.16,5.16,0,0,0,51,11.77l1.34,1.59a3.24,3.24,0,0,1,2.51-1.31,1.55,1.55,0,0,1,1.75,1.32,1.93,1.93,0,0,1,0,.34v.42H54.27c-2.2,0-3.58,1-3.58,2.75S52,19.71,54,19.71a4,4,0,0,0,2.89-1.15v.92h2.38Z"/><path class="cls-1" d="M66.15,12.14a2.44,2.44,0,0,1,2.46,2.41,1.48,1.48,0,0,1,0,.21,2.43,2.43,0,0,1-2.28,2.59h-.17A2.36,2.36,0,0,1,63.75,15a2.44,2.44,0,0,1,0-.27,2.36,2.36,0,0,1,2.11-2.58l.28,0ZM70,18.21a4.71,4.71,0,0,0,1.23-3.47,4.64,4.64,0,0,0-4.34-4.92h-.25a3.6,3.6,0,0,0-3,1.4V10H61.21v12.9H63.8V18.56a3.81,3.81,0,0,0,2.83,1.15A4.67,4.67,0,0,0,70,18.21Z"/><path class="cls-1" d="M77.7,12.14a2.43,2.43,0,0,1,2.45,2.4,1.55,1.55,0,0,1,0,.22,2.43,2.43,0,0,1-2.28,2.59h-.17A2.37,2.37,0,0,1,75.29,15a2.53,2.53,0,0,1,0-.28,2.36,2.36,0,0,1,2.11-2.58l.28,0Zm.47,7.57A4.68,4.68,0,0,0,82.77,15a1.77,1.77,0,0,0,0-.23,4.64,4.64,0,0,0-4.34-4.92h-.25a3.6,3.6,0,0,0-3,1.4V10H72.75v12.9h2.59V18.56A3.81,3.81,0,0,0,78.17,19.71Z"/><path class="cls-1" d="M87,9.14h2.16a1.75,1.75,0,0,1,1.91,1.58,1.62,1.62,0,0,1,0,.22,1.73,1.73,0,0,1-1.65,1.82,1.22,1.22,0,0,1-.27,0H87Zm5.17,10.33h2.9l-3.58-4.94a3.92,3.92,0,0,0,2.22-3.6c0-2.42-1.91-4.07-4.55-4.07H84.4V19.48H87V15h1.89l3.27,4.45Z"/><path class="cls-1" d="M101.13,15.94a1.87,1.87,0,0,1-1.89,1.87h-.1c-.82,0-1.35-.4-1.35-1s.48-1,1.32-1h2Zm2.59,3.54V13.87a3.71,3.71,0,0,0-3.35-4,4.09,4.09,0,0,0-.7,0,5.15,5.15,0,0,0-4.13,1.95l1.34,1.59a3.24,3.24,0,0,1,2.51-1.31,1.55,1.55,0,0,1,1.75,1.32,1.93,1.93,0,0,1,0,.34v.42H98.77c-2.2,0-3.57,1-3.57,2.75s1.26,2.83,3.26,2.83a4,4,0,0,0,2.89-1.15v.92Z"/><path class="cls-1" d="M110.26,12.14a2.39,2.39,0,0,1,2.4,2.37c0,.08,0,.17,0,.25a2.37,2.37,0,0,1-2.11,2.59h-.28A2.43,2.43,0,0,1,107.8,15a1.7,1.7,0,0,1,0-.22,2.43,2.43,0,0,1,2.28-2.59Zm2.34-7v5.79a3.67,3.67,0,0,0-2.83-1.13,4.66,4.66,0,0,0-4.6,4.7c0,.08,0,.17,0,.25a4.66,4.66,0,0,0,4.34,4.94h.25a3.6,3.6,0,0,0,3-1.4v1.17h2.38V5.14Z"/><path class="cls-1" d="M122.62,15.94a1.87,1.87,0,0,1-1.89,1.87h-.1c-.81,0-1.35-.4-1.35-1s.48-1,1.32-1h2Zm2.58,3.54V13.87a3.73,3.73,0,0,0-3.35-4,4.09,4.09,0,0,0-.7,0A5.14,5.14,0,0,0,117,11.77l1.34,1.59a3.24,3.24,0,0,1,2.51-1.31,1.54,1.54,0,0,1,1.74,1.32,1.29,1.29,0,0,1,0,.34v.42h-2.37c-2.2,0-3.58,1-3.58,2.75s1.27,2.83,3.27,2.83a3.92,3.92,0,0,0,2.88-1.15v.92Z"/><path class="cls-1" d="M133,12.29h-.68a2.3,2.3,0,0,0-2.54,2,2.36,2.36,0,0,0,0,.46v4.72H127.2V10h2.37v1.13a3.27,3.27,0,0,1,2.6-1.25A3.06,3.06,0,0,1,133,10v2.27Z"/></g></g></svg>
