<?xml version="1.0" encoding="utf-8"?>
<!-- Generator: Adobe Illustrator 23.0.1, SVG Export Plug-In . SVG Version: 6.00 Build 0)  -->
<svg version="1.1" xmlns="http://www.w3.org/2000/svg" xmlns:xlink="http://www.w3.org/1999/xlink" x="0px" y="0px"
	 viewBox="0 0 223.2 200" style="enable-background:new 0 0 223.2 200;" xml:space="preserve">
<style type="text/css">
	.st0{fill:#797f8c;}
	.st1{fill:#f7c219;}
</style>
<g id="layer_1">
</g>
<g id="layer_2">
	<g>
		<path class="st0" d="M159.5,169.1C159.5,169.1,159.5,169.1,159.5,169.1H60.4c-5.2,0-9.4,4.2-9.4,9.4s4.2,9.4,9.4,9.4h99
			c5.2,0,9.4-4.2,9.4-9.4C168.9,173.3,164.7,169.1,159.5,169.1z"/>
		<path class="st0" d="M187.6,12.1H32.4c-11.2,0-20.3,9.1-20.3,20.3v106.3c0,11.2,9.1,20.3,20.3,20.3h155.2
			c11.2,0,20.3-9.1,20.3-20.3V32.4C207.9,21.2,198.8,12.1,187.6,12.1z"/>
	</g>
	<path class="st1" d="M167.3,45.9h-35c-4.8,0-8.8,3.9-8.8,8.8s3.9,8.8,8.8,8.8h13.9l-31.4,31.4L85.9,66c-3.4-3.4-9-3.4-12.4,0
		l-35,35c-3.4,3.5-3.3,9,0.2,12.4c3.4,3.3,8.8,3.3,12.2,0l28.8-28.8l28.8,28.8c3.4,3.4,9,3.4,12.4,0l37.6-37.6v13.9
		c0,4.8,3.9,8.8,8.8,8.8c4.8,0,8.8-3.9,8.8-8.8v-35C176,49.9,172.1,45.9,167.3,45.9L167.3,45.9z"/>
</g>
</svg>
