<svg xmlns="http://www.w3.org/2000/svg" viewBox="0 0 15.77 17.22">
  <defs><style>.cls-1,.cls-2{fill:#797f8c;}.cls-1{opacity:0.46;}.cls-2{fill-rule:evenodd;}.cls-3{fill:#f7c219;}</style></defs>
  <g>
    <g>
      <rect class="cls-1" x="2.44" width="13.32" height="12.4" rx="1.97"/>
      <path class="cls-2" d="M11.26,2.54H1.58A1.59,1.59,0,0,0,0,4.14V13a1.59,1.59,0,0,0,1.58,1.6H4.1v2.58l2.82-2.58h4.34A1.59,1.59,0,0,0,12.84,13V4.14A1.59,1.59,0,0,0,11.26,2.54Z"/>
      <path class="cls-3" d="M3.85,7.25a1.87,1.87,0,0,1,.27-.94,2.24,2.24,0,0,1,.8-.79,2.33,2.33,0,0,1,1.22-.31,2.46,2.46,0,0,1,1.14.26,1.88,1.88,0,0,1,1,1.68,1.67,1.67,0,0,1-.15.73,2.44,2.44,0,0,1-.37.54c-.14.15-.39.4-.76.76l-.25.27a.8.8,0,0,0-.13.21,1.07,1.07,0,0,0-.07.19,3.29,3.29,0,0,0-.07.33q-.09.51-.54.51a.54.54,0,0,1-.39-.17A.7.7,0,0,1,5.43,10a1.92,1.92,0,0,1,.12-.71,1.85,1.85,0,0,1,.31-.53c.13-.15.3-.33.52-.54a5.13,5.13,0,0,0,.41-.41A1.13,1.13,0,0,0,7,7.53a.75.75,0,0,0,.09-.37.93.93,0,0,0-.26-.66,1,1,0,0,0-.69-.26.89.89,0,0,0-.72.27A2.15,2.15,0,0,0,5,7.3c-.1.37-.29.55-.57.55A.56.56,0,0,1,4,7.66.62.62,0,0,1,3.85,7.25ZM6,12.59a.68.68,0,0,1-.47-.19.7.7,0,0,1-.21-.54.73.73,0,0,1,.2-.52.65.65,0,0,1,1,0,.77.77,0,0,1,.19.52.72.72,0,0,1-.2.53A.67.67,0,0,1,6,12.59Z"/>
    </g>
  </g>
</svg>
