<svg xmlns="http://www.w3.org/2000/svg" viewBox="0 0 1024 1024" width="200" height="200">
  <g>
    <path fill="#626a77" d="M511.57504 85.33504c-235.52 0-426.24 191.14496-426.24 426.66496s190.72 426.66496 426.24 426.66496C747.52 938.66496 938.67008 747.52 938.67008 512s-191.14496-426.66496-427.09504-426.66496z m295.68 256h-125.86496c-13.65504-53.33504-33.28-104.53504-58.88-151.89504 78.50496 26.88 143.78496 81.49504 184.74496 151.89504z m-295.25504-168.96c35.41504 51.2 63.14496 107.94496 81.49504 168.96H430.51008c18.34496-61.01504 46.08-117.76 81.49504-168.96z m-330.24 424.96c-6.82496-27.30496-11.09504-55.89504-11.09504-85.33504s4.26496-58.02496 11.09504-85.33504h144.21504C322.56 454.82496 320 482.98496 320 512s2.56 57.17504 5.97504 85.33504H181.76z m34.98496 85.32992h125.86496c13.65504 53.33504 33.28 104.53504 58.88 151.89504a340.7616 340.7616 0 0 1-184.74496-151.89504z m125.87008-341.32992H216.75008A340.7872 340.7872 0 0 1 401.49504 189.44c-25.6 47.36-45.22496 98.56-58.88 151.89504zM512 851.62496c-35.41504-51.2-63.14496-107.94496-81.49504-168.96h162.98496c-18.34496 61.01504-46.08 117.76-81.49504 168.96z m99.84-254.28992h-199.68c-3.84-28.16-6.82496-56.32-6.82496-85.33504s2.98496-57.6 6.82496-85.33504h199.68c3.84 27.73504 6.82496 56.32 6.82496 85.33504s-2.98496 57.17504-6.82496 85.33504zM622.50496 834.56c25.6-47.36 45.22496-98.56 58.88-151.89504h125.86496c-40.96 70.4-106.24 125.01504-184.74496 151.89504z m75.52-237.22496c3.41504-28.16 5.97504-56.32 5.97504-85.33504s-2.56-57.17504-5.97504-85.33504H842.24c6.82496 27.30496 11.09504 55.89504 11.09504 85.33504s-4.26496 58.02496-11.09504 85.33504h-144.21504z"/>
  </g>
</svg>
