<svg xmlns="http://www.w3.org/2000/svg" xmlns:xlink="http://www.w3.org/1999/xlink" viewBox="0 0 137.16 238.31"><defs><linearGradient id="Degradado_sin_nombre_13-7" x1="61.25" y1="-75.54" x2="91.79" y2="-34.65" gradientTransform="rotate(-25.76 386.06 75.346)" xlink:href="#Degradado_sin_nombre_13"/><linearGradient id="Degradado_sin_nombre_54" x1="71.44" y1="22.23" x2="62.59" y2="198.07" gradientUnits="userSpaceOnUse"><stop offset="0" stop-color="#4076bc" stop-opacity="0"/><stop offset="1" stop-color="#fff"/></linearGradient><linearGradient id="Degradado_sin_nombre_13-2" x1=".15" y1="177.37" x2="137.08" y2="177.37" xlink:href="#Degradado_sin_nombre_13"/><linearGradient id="Degradado_sin_nombre_13-3" x1=".23" y1="162.37" x2="137.16" y2="162.37" xlink:href="#Degradado_sin_nombre_13"/><linearGradient id="Degradado_sin_nombre_13-4" x1="92.36" y1="81.22" x2="121.31" y2="123.69" gradientTransform="rotate(-31.8 124.247 129.69)" xlink:href="#Degradado_sin_nombre_13"/><linearGradient id="Degradado_sin_nombre_13-5" x1="92.13" y1="81.37" x2="121.08" y2="123.84" gradientTransform="rotate(-31.8 124.247 129.69)" xlink:href="#Degradado_sin_nombre_13"/><linearGradient id="Degradado_sin_nombre_13-6" x1="38.3" y1="160.34" x2="94.35" y2="160.34" xlink:href="#Degradado_sin_nombre_13"/><linearGradient id="Degradado_sin_nombre_13" x1=".02" y1="192.03" x2="136.95" y2="192.03" gradientUnits="userSpaceOnUse"><stop offset="0" stop-color="#5618b8"/><stop offset="1" stop-color="#c7d7ff"/></linearGradient><linearGradient id="Degradado_sin_nombre_13-8" x1="59.93" y1="-74.55" x2="90.47" y2="-33.66" gradientTransform="rotate(-25.76 386.06 75.346)" xlink:href="#Degradado_sin_nombre_13"/><linearGradient id="Degradado_sin_nombre_13-9" x1="101.32" y1="197.2" x2="141.73" y2="197.58" gradientTransform="rotate(22.49 459.187 67.047)" xlink:href="#Degradado_sin_nombre_13"/><linearGradient id="Degradado_sin_nombre_13-10" x1="101.11" y1="219.32" x2="141.52" y2="219.7" gradientTransform="rotate(22.49 459.187 67.047)" xlink:href="#Degradado_sin_nombre_13"/><linearGradient id="Degradado_sin_nombre_13-11" x1="60.83" y1="11.24" x2="78.36" y2="74.66" xlink:href="#Degradado_sin_nombre_13"/><linearGradient id="Degradado_sin_nombre_13-12" x1="75.51" y1="7.19" x2="93.04" y2="70.6" xlink:href="#Degradado_sin_nombre_13"/><style>.cls-1{isolation:isolate}.cls-2{fill:#5618b8}.cls-4{fill:#5fd9ff}.cls-7{fill:#ccd3e2}.cls-8{fill:#fff}.cls-9{fill:#e8eff9}.cls-12{fill:#caaeff}</style></defs><g class="cls-1"><g id="layer_2" data-name="layer 2"><g id="OBJECTS"><g class="cls-1"><path class="cls-2" d="M137 192.05v6.63c0 1.44-.94 2.87-2.82 4v-6.63c1.82-1.12 2.82-2.56 2.82-4ZM0 198.63V192c0 1.46 1 2.92 2.86 4v6.63C1 201.54 0 200.08 0 198.63ZM134.13 196.02l-.02 6.63-58.54 34.01.02-6.62 58.54-34.02zM61.8 230.04l-.02 6.62-58.91-34.01.01-6.63 58.92 34.02z"/><path class="cls-2" d="M75.59 230v6.62a15.23 15.23 0 0 1-13.79 0V230a15.23 15.23 0 0 0 13.79 0Z"/><path d="M134.09 188c3.8 2.2 3.82 5.79 0 8l-58.5 34a15.23 15.23 0 0 1-13.79 0L2.88 196c-3.8-2.19-3.82-5.79 0-8l58.54-34a15.23 15.23 0 0 1 13.79 0Z" style="fill:url(#Degradado_sin_nombre_13)"/></g><g class="cls-1"><path class="cls-4" d="M130.71 186.32v6.05c0 1.31-.86 2.62-2.58 3.62v-6.05c1.72-1 2.58-2.31 2.58-3.62ZM5.71 192.32v-6c0 1.33.87 2.66 2.62 3.67v6.05c-1.75-1.04-2.62-2.39-2.62-3.72ZM128.13 189.94l-.02 6.05-53.42 31.05.01-6.05 53.43-31.05z"/><path class="cls-4" d="m62.12 220.99-.02 6.05-53.77-31.05.02-6.05 53.77 31.05zM74.71 221v6a14 14 0 0 1-12.59 0v-6a14 14 0 0 0 12.59 0Z"/><path class="cls-4" d="M128.1 182.65c3.47 2 3.48 5.28 0 7.29L74.71 221a14 14 0 0 1-12.59 0L8.35 189.94c-3.48-2-3.49-5.28 0-7.29l53.43-31a13.93 13.93 0 0 1 12.59 0Z"/></g><g class="cls-1"><path class="cls-2" d="M137.08 177.39v6.63c0 1.44-.95 2.87-2.83 4v-6.63c1.88-1.12 2.82-2.56 2.83-4ZM.13 184v-6.63c0 1.46 1 2.92 2.86 4L3 188c-1.92-1.12-2.88-2.58-2.87-4ZM134.25 181.36l-.02 6.63L75.7 222l.02-6.62 58.53-34.02z"/><path class="cls-2" d="m61.93 215.38-.02 6.62-58.92-34.01.02-6.63 58.92 34.02zM75.72 215.38V222a15.23 15.23 0 0 1-13.79 0v-6.62a15.23 15.23 0 0 0 13.79 0Z"/><path d="M134.21 173.37c3.81 2.2 3.83 5.79 0 8l-58.53 34a15.23 15.23 0 0 1-13.79 0L3 181.36c-3.8-2.19-3.82-5.79 0-8l58.53-34a15.23 15.23 0 0 1 13.79 0Z" style="fill:url(#Degradado_sin_nombre_13-2)"/></g><g class="cls-1"><path class="cls-4" d="M130.79 171.32v6c0 1.32-.86 2.63-2.57 3.63v-6.05c1.71-.96 2.57-2.27 2.57-3.58ZM5.79 177.32v-6c0 1.33.87 2.66 2.62 3.67v6.05c-1.75-1.04-2.62-2.39-2.62-3.72ZM128.21 174.94l-.01 6.05-53.43 31.04.02-6.04 53.42-31.05zM62.2 205.99l-.01 6.04-53.78-31.04.02-6.05 53.77 31.05z"/><path class="cls-4" d="M74.79 206v6a13.88 13.88 0 0 1-12.58 0v-6a14 14 0 0 0 12.58 0Z"/><path class="cls-4" d="M128.18 167.65c3.47 2 3.49 5.28 0 7.29L74.79 206a14 14 0 0 1-12.59 0L8.43 174.94c-3.47-2-3.49-5.28 0-7.29l53.38-31.05a14 14 0 0 1 12.59 0Z"/></g><g class="cls-1"><path class="cls-2" d="M137.16 162.39v6.63c0 1.44-.94 2.87-2.82 4v-6.63c1.87-1.12 2.82-2.56 2.82-4ZM.21 169v-6.63c0 1.46 1 2.92 2.86 4V173c-1.91-1.12-2.87-2.58-2.86-4ZM134.34 166.36l-.02 6.63L75.78 207l.02-6.62 58.54-34.02z"/><path class="cls-2" d="m62.01 200.38-.02 6.62-58.92-34.01.02-6.63 58.92 34.02z"/><path class="cls-2" d="M75.8 200.38V207a15.23 15.23 0 0 1-13.8 0v-6.62a15.29 15.29 0 0 0 13.8 0Z"/><path d="M134.29 158.37c3.81 2.2 3.83 5.79 0 8l-58.53 34a15.29 15.29 0 0 1-13.79 0l-58.92-34c-3.8-2.19-3.82-5.79 0-8l58.53-34a15.25 15.25 0 0 1 13.8 0Z" style="fill:url(#Degradado_sin_nombre_13-3)"/></g><g class="cls-1"><path class="cls-7" d="M74.34 123.8v6.63a13.3 13.3 0 0 0-12.07 0v-6.63a13.3 13.3 0 0 1 12.07 0Z"/><path class="cls-7" d="m123.64 152.26-.02 6.63-49.3-28.46.02-6.63 49.3 28.46zM126.15 155.78v6.63c0-1.28-.83-2.55-2.51-3.52v-6.63c1.68.97 2.52 2.25 2.51 3.52ZM10.79 162.36v-6.62c0-1.26.83-2.52 2.48-3.48v6.63c-1.65.96-2.47 2.21-2.48 3.47Z"/><path class="cls-7" d="M128.59 155.79v6.63c0 1.61-1.07 3.23-3.18 4.46v-6.63c2.11-1.25 3.17-2.84 3.18-4.46ZM8.36 162.35v-6.62c0 1.64 1.07 3.28 3.23 4.52v6.63c-2.16-1.25-3.24-2.88-3.23-4.53Z"/><path class="cls-8" d="M125.35 151.27c4.29 2.47 4.32 6.51.05 9l-49 28.47a17.18 17.18 0 0 1-15.52 0l-49.3-28.47c-4.29-2.47-4.31-6.51 0-9l49-28.47c4.26-2.47 11.22-2.47 15.51 0ZM74.7 187.72l49-28.46c3.32-1.93 3.29-5.07 0-7L74.34 123.8a13.3 13.3 0 0 0-12.07 0l-49 28.46c-3.32 1.93-3.3 5.07 0 7l49.3 28.46a13.3 13.3 0 0 0 12.07 0"/><path class="cls-7" d="m62.27 123.8-.02 6.63-48.98 28.46.02-6.63 48.98-28.46zM125.4 160.25l-.01 6.63-48.98 28.46.01-6.62 48.98-28.47zM60.91 188.72l-.02 6.62-49.3-28.46.02-6.63 49.3 28.47z"/><path class="cls-7" d="M76.43 188.72v6.62a17.12 17.12 0 0 1-15.52 0v-6.62a17.18 17.18 0 0 0 15.52 0Z"/></g><g class="cls-1"><path class="cls-7" d="M110.92 160.21v1.33c0 1.44-.94 2.88-2.82 4v-1.33c1.9-1.12 2.81-2.56 2.82-4ZM26 161.49v-1.33c0 1.46.95 2.92 2.87 4v1.33C27 164.4 26 163 26 161.49ZM108.09 164.18v1.33L75.5 184.45v-1.32l32.59-18.95zM61.71 183.13l-.01 1.32-32.81-18.94.01-1.33 32.81 18.95z"/><path class="cls-7" d="M75.5 183.12v1.33a15.25 15.25 0 0 1-13.8 0v-1.32a15.26 15.26 0 0 0 13.8-.01Z"/><path class="cls-8" d="M108.05 156.19c3.81 2.2 3.83 5.8 0 8L75.5 183.12a15.26 15.26 0 0 1-13.79 0L28.9 164.18c-3.81-2.19-3.83-5.79 0-8l32.59-18.95a15.29 15.29 0 0 1 13.79 0Z"/></g><g class="cls-1"><path class="cls-8" d="M92.85 133.51a23.18 23.18 0 0 0 6.6.84l-.8 1.52A23.25 23.25 0 0 1 92 135ZM99.45 134.35c4.28-.14 7.23-1.73 8.54-4.2l-.8 1.51c-1.32 2.47-4.27 4.07-8.54 4.21Z"/><path class="cls-8" d="M76.08 121.81c3.32 5.39 10 9.9 16.77 11.7L92 135c-6.73-1.8-13.45-6.31-16.77-11.7-2.2-3.57-2.5-6.87-1.2-9.31l.81-1.51c-1.26 2.52-.96 5.76 1.24 9.33Z"/><path class="cls-9" d="m74.07 114 .81-1.52c1.31-2.47 4.27-4.07 8.53-4.2l-.81 1.51c-4.26.21-7.21 1.77-8.53 4.21Z"/><path d="m71.38 111.44.81-1.52c1.74-3.27 5.65-5.38 11.3-5.56l-.81 1.52c-5.68.18-9.56 2.29-11.3 5.56Z" style="fill:url(#Degradado_sin_nombre_13-4)"/><path class="cls-9" d="M82.6 109.82c8.49-.26 19 5.36 23.39 12.55s1.14 13.23-7.34 13.5-19-5.35-23.38-12.54-1.15-13.24 7.33-13.51Z"/><path class="cls-9" d="m108 130.15-.81 1.51c1.3-2.43 1-5.72-1.2-9.29-4.43-7.19-14.9-12.81-23.39-12.55l.81-1.51c8.49-.27 19 5.35 23.39 12.54 2.2 3.57 2.49 6.86 1.2 9.3Z"/><path d="m116 133.27-.81 1.52c1.72-3.23 1.33-7.59-1.58-12.31-5.87-9.52-19.73-17-31-16.6l.81-1.52c11.23-.35 25.09 7.08 31 16.6 2.94 4.73 3.33 9.04 1.58 12.31Z" style="fill:url(#Degradado_sin_nombre_13-5)"/><path class="cls-8" d="M82.68 105.88c11.23-.35 25.09 7.08 31 16.6s1.51 17.52-9.72 17.87-25.13-7.08-30.96-16.6-1.55-17.52 9.68-17.87Zm16 30c8.48-.27 11.77-6.31 7.34-13.5s-14.9-12.81-23.39-12.55-11.76 6.32-7.33 13.51 14.89 12.8 23.38 12.54"/></g><g class="cls-1"><path class="cls-12" d="m74.42 114.07.27-.5C73.24 116.3 73.56 120 76 124c5 8 16.68 14.32 26.16 14l-.27.5c-9.48.3-21.21-6-26.16-14-2.44-4.02-2.73-7.7-1.31-10.43ZM111.72 133.29l-.27.51c-1.47 2.76-4.77 4.55-9.54 4.7l.27-.5c4.82-.15 8.07-1.94 9.54-4.71ZM73.18 113.41l.27-.5c1.57-3 5.09-4.86 10.18-5l-.27.5c-5.09.14-8.61 2.05-10.18 5Z"/><path class="cls-12" d="m113 134-.27.51c1.55-2.92 1.2-6.84-1.42-11.1-5.28-8.57-17.8-15.28-27.91-15l.27-.5c10.11-.32 22.63 6.39 27.91 15 2.58 4.2 2.93 8.09 1.42 11.09Z"/><path class="cls-2" d="M83.36 108.39c10.11-.31 22.63 6.4 27.91 15s1.35 15.8-8.76 16.12-22.63-6.4-27.91-15-1.35-15.8 8.76-16.12Zm18.55 30.11c9.47-.3 13.16-7.07 8.21-15.1s-16.68-14.33-26.16-14-13.16 7.07-8.21 15.11 16.68 14.32 26.16 14"/></g><g class="cls-1"><path class="cls-12" d="m82.42 123.93.27-.51 3.08-.84-.27.5-3.08.85zM93.25 123.59l.26-.51 1.95 5.43-.27.51-1.94-5.43zM105.94 128.68l.27-.5 1.52 4.25-.27.51-1.52-4.26z"/><path class="cls-12" d="m95.19 129.02.27-.51 10.75-.33-.27.5-10.75.34zM95.47 120.4l.27-.5 1.36 2.2-.27.51-1.36-2.21zM92.39 121.25l.27-.51 3.08-.84-.27.5-3.08.85z"/><path class="cls-2" d="m89.21 112.62 3.18 8.63 3.08-.85 1.36 2.21-3.58.98 1.94 5.43 10.75-.34 1.52 4.26-18.11.56-2.99-8.07-2.58.7-1.36-2.2 3.08-.85-3.73-10.23 7.44-.23z"/><path class="cls-12" d="m89.21 112.62.27-.51 3.18 8.63-.27.51-3.18-8.63zM81.77 112.85l.27-.51 7.44-.23-.27.51-7.44.23z"/></g><g class="cls-1"><path class="cls-8" d="m86.73 150.28-.06-.19v-1.94l.06.19c.01.66 0 1.3 0 1.94Z"/><path class="cls-8" d="M86.73 150.28a.75.75 0 0 1 0-.15v-1.79a7.66 7.66 0 0 1 .34 2.16v1.94a7.37 7.37 0 0 0-.34-2.16ZM50.88 143.77c-4.09 2.37-6.14 5.49-6.15 8.6v-1.94c0-3.11 2-6.23 6.15-8.6 8.24-4.79 21.64-4.8 29.94 0 3.11 1.8 5.06 4 5.85 6.33v1.94c-.79-2.32-2.74-4.53-5.85-6.33-8.29-4.77-21.7-4.77-29.94 0ZM87.07 152.5v-2 2Z"/><path class="cls-9" d="M87.08 150.55v1.95c0 3.11-2.06 6.23-6.15 8.61-8.24 4.79-21.64 4.79-29.94 0-4.17-2.4-6.26-5.57-6.25-8.73v-1.94c0 3.16 2.07 6.32 6.24 8.73 8.3 4.8 21.7 4.8 29.94 0 4.08-2.38 6.15-5.5 6.16-8.62Z"/><path class="cls-9" d="M80.83 141.82c8.29 4.79 8.33 12.56.09 17.35S59.28 164 51 159.16s-8.33-12.55-.09-17.33 21.62-4.83 29.92-.01Z"/><path d="M94.35 151.37v1.94c0 4.13-2.72 8.25-8.14 11.4-10.91 6.34-28.65 6.34-39.63 0-5.52-3.19-8.28-7.38-8.27-11.56v-1.94c0 4.18 2.74 8.37 8.27 11.56 11 6.34 28.72 6.34 39.63 0 5.41-3.15 8.13-7.27 8.14-11.4Z" style="fill:url(#Degradado_sin_nombre_13-6)"/><path class="cls-8" d="M86.08 139.82c11 6.34 11 16.61.13 23s-28.65 6.34-39.63 0-11-16.62-.13-23 28.65-6.34 39.63 0ZM51 159.16c8.3 4.8 21.7 4.8 29.94 0s8.2-12.56-.09-17.35-21.7-4.78-29.94 0-8.2 12.55.09 17.33"/></g><g class="cls-1"><path class="cls-12" d="M89.58 151.24v.65c0-3.54-2.32-7.08-7-9.77-9.26-5.35-24.29-5.35-33.5 0-4.57 2.66-6.86 6.14-6.87 9.63v-.65c0-3.49 2.29-7 6.86-9.63 9.21-5.35 24.24-5.35 33.5 0 4.69 2.69 7.02 6.23 7.01 9.77Z"/><path class="cls-12" d="M91.17 151.24v.65c0 3.73-2.45 7.44-7.33 10.28-9.82 5.71-25.85 5.71-35.74 0-5-2.87-7.45-6.65-7.44-10.42v-.65c0 3.77 2.47 7.55 7.45 10.42 9.88 5.71 25.91 5.71 35.73 0 4.87-2.83 7.32-6.52 7.33-10.28Z"/><path class="cls-2" d="M83.72 140.82c9.88 5.71 9.94 15 .11 20.7s-25.85 5.71-35.73 0-9.94-15-.12-20.7 25.85-5.71 35.74 0Zm-34.51 20.05c9.27 5.35 24.3 5.35 33.5 0s9.15-14.05-.11-19.4-24.29-5.35-33.5 0-9.15 14.05.11 19.4"/></g><g class="cls-1"><path class="cls-12" d="M61.35 154.02v.65l-3.82-8.41v-.65l3.82 8.41z"/><path class="cls-2" d="m75.88 156.21-14.53-2.19-3.82-8.41 24.1-3.37-5.75 13.97z"/><path class="cls-12" d="M75.88 156.21v.64l-14.53-2.18v-.65l14.53 2.19zM81.63 142.24v.64l-5.75 13.97v-.64l5.75-13.97zM75.22 157.52v.64l-22.98 1.8v-.64l22.98-1.8z"/><path class="cls-2" d="m59.44 155.13 15.78 2.39-22.98 1.8L55.28 146l4.16 9.13z"/></g><g class="cls-1"><path class="cls-8" d="M42.87 108.55a23.09 23.09 0 0 0 6.47 1.52l-1 1.42a23.09 23.09 0 0 1-6.43-1.49Z"/><path class="cls-8" d="M27.44 95.17c2.74 5.7 8.93 10.88 15.43 13.38l-1 1.42c-6.5-2.5-12.7-7.68-15.43-13.38-1.81-3.78-1.76-7.08-.21-9.36l1-1.42c-1.54 2.28-1.6 5.58.21 9.36ZM49.34 110.07c4.25.32 7.35-1 8.92-3.28l-1 1.43c-1.57 2.31-4.67 3.59-8.92 3.27Z"/><path class="cls-9" d="m26.27 87.23 1-1.42c1.57-2.32 4.67-3.59 8.92-3.28l-1 1.42c-4.25-.31-7.35.96-8.92 3.28Z"/><path d="m21.67 83.55 1-1.42c2.07-3.06 6.17-4.75 11.8-4.34l-1 1.43c-5.62-.42-9.72 1.27-11.8 4.33Z" style="fill:url(#Degradado_sin_nombre_13-7)"/><path class="cls-9" d="m58.26 106.79-1 1.43c1.54-2.29 1.6-5.58-.21-9.36C53.44 91.25 43.64 84.58 35.19 84l1-1.42c8.45.63 18.26 7.3 21.9 14.91 1.77 3.72 1.72 7.02.17 9.3Z"/><path class="cls-8" d="M33.48 79.22c11.18.83 24.16 9.66 29 19.73s-.34 17.55-11.52 16.72S26.78 106 22 95.94s.29-17.55 11.48-16.72Zm14.9 32.27c8.45.63 12.35-5 8.71-12.63S43.64 84.58 35.19 84s-12.35 5-8.71 12.64 13.45 14.27 21.9 14.9"/><path class="cls-9" d="M35.19 84c8.45.63 18.25 7.3 21.9 14.91s-.26 13.26-8.71 12.63-18.26-7.3-21.9-14.9.26-13.31 8.71-12.64Z"/><path d="m63.7 109.91-1 1.42c2.05-3 2.11-7.38-.28-12.38-4.82-10.07-17.8-18.9-29-19.73l1-1.43c11.18.83 24.16 9.67 29 19.73 2.4 5 2.33 9.37.28 12.39Z" style="fill:url(#Degradado_sin_nombre_13-8)"/></g><g class="cls-1"><path class="cls-12" d="m24.24 86.72.32-.47c-1.73 2.55-1.79 6.24.23 10.46 4.07 8.5 15.05 16 24.49 16.68l-.32.47c-9.44-.7-20.42-8.18-24.49-16.67-2.02-4.19-1.96-7.91-.23-10.47Z"/><path class="cls-12" d="m59.25 109.72-.32.47c-1.75 2.59-5.22 4-10 3.67l.32-.47c4.75.35 8.25-1.08 10-3.67ZM23.07 85.93l.32-.47C25.27 82.7 29 81.17 34 81.54l-.32.48c-5.04-.38-8.74 1.15-10.61 3.91Z"/><path class="cls-12" d="m60.41 110.5-.32.48c1.85-2.73 1.91-6.67-.24-11.17-4.34-9.06-16.07-17-26.14-17.79l.32-.48c10.07.75 21.8 8.74 26.14 17.8 2.16 4.5 2.09 8.44.24 11.16Z"/><path class="cls-2" d="M33.71 82c10.07.75 21.8 8.73 26.14 17.79s-.32 15.83-10.39 15.08-21.8-8.73-26.14-17.79.32-15.81 10.39-15.08ZM49 113.86c9.44.7 13.81-5.64 9.74-14.13s-15.05-16-24.49-16.68-13.85 5.64-9.78 14.14 15.05 16 24.49 16.67"/></g><g class="cls-1"><path class="cls-12" d="m42.3 106-.32.48a3.25 3.25 0 0 0-.07-3.27 7.41 7.41 0 0 0-1.07-1.55l.32-.47a7.63 7.63 0 0 1 1.07 1.54 3.25 3.25 0 0 1 .07 3.27ZM31.13 99.13l.32-.47a3.27 3.27 0 0 1 3.12-1.15 10 10 0 0 1 4.78 1.94l-.32.48a9.92 9.92 0 0 0-4.78-2 3.27 3.27 0 0 0-3.12 1.2Z"/><path class="cls-12" d="m41.19 98.3-.32.47c-.21.31-.8.53-1.84 1.16l.32-.48c1.04-.63 1.65-.84 1.84-1.15ZM41.83 96l.32-.48c1.79 3.72.43 2.39 4.92 4.54l-.32.48c-4.49-2.2-3.14-.86-4.92-4.54Z"/><path class="cls-12" d="m46.81 100.4.33-.48a3.36 3.36 0 0 1 3.21-1.24 10.25 10.25 0 0 1 7.59 5.21 3.29 3.29 0 0 1 .08 3.3l-.32.47a3.29 3.29 0 0 0-.08-3.3 10.21 10.21 0 0 0-7.62-5.2 3.36 3.36 0 0 0-3.19 1.24ZM33.08 87.52l.32-.47a3.27 3.27 0 0 1 3.12-1.15l-.32.47a3.29 3.29 0 0 0-3.12 1.15ZM44.25 94.37l-.32.48a3.26 3.26 0 0 0-.08-3.27 10.13 10.13 0 0 0-7.65-5.21l.32-.47a10.13 10.13 0 0 1 7.65 5.21 3.24 3.24 0 0 1 .08 3.26Z"/><path class="cls-2" d="M36.2 86.37a10.13 10.13 0 0 1 7.65 5.21c1.11 2.32.22 4.14-2 4.38 1.78 3.72.43 2.38 4.92 4.54A3.3 3.3 0 0 1 50 99.16a10.21 10.21 0 0 1 7.59 5.2c1.28 2.68-.07 4.65-3 4.43a10.14 10.14 0 0 1-7.59-5.21 4.45 4.45 0 0 1-.46-1.51c-2.08-1-2.87-1.49-3.45-1.53s-1 .35-2.23 1.11a7.41 7.41 0 0 1 1.07 1.55c1.28 2.68-.14 4.63-3 4.42a10.16 10.16 0 0 1-7.66-5.22c-1.26-2.62.06-4.64 3.05-4.42a9.92 9.92 0 0 1 4.78 2c2.43-1.47 2.4-.71.8-4.06a10.39 10.39 0 0 1-6.68-5.08c-1.36-2.74.06-4.69 2.98-4.47Z"/></g><g class="cls-1"><path class="cls-8" d="M106.43 78.28c1.59-3.88 1.35-7.16-.33-9.36l1.05 1.37c1.67 2.19 1.91 5.48.32 9.35-3.2 7.8-12.61 15-21 16.13l-1-1.36c8.35-1.11 17.76-8.33 20.96-16.13ZM76.32 91.65c1.7 2.22 4.87 3.31 9.1 2.76l1 1.36c-4.23.56-7.4-.54-9.09-2.76-.28-.41-.69-.96-1.01-1.36Z"/><path class="cls-9" d="m106.1 68.92 1.05 1.37c-1.7-2.23-4.87-3.32-9.09-2.77l-1-1.36c4.18-.56 7.35.54 9.04 2.76Z"/><path d="m114.55 65.05 1 1.36c-2.25-2.94-6.44-4.39-12-3.65l-1-1.36c5.57-.74 9.76.71 12 3.65Z" style="fill:url(#Degradado_sin_nombre_13-9)"/><path class="cls-9" d="M98.06 67.52c8.4-1.1 12.61 4.32 9.41 12.12s-12.61 15-21 16.13S73.84 91.46 77 83.66s12.66-15.03 21.06-16.14Z"/><path class="cls-9" d="m77.37 93-1.05-1.36c-1.67-2.2-1.91-5.48-.32-9.36 3.2-7.8 12.62-15 21-16.13l1 1.36c-8.4 1.11-17.81 8.34-21 16.14-1.55 3.88-1.31 7.17.37 9.35Z"/><path d="m76.18 96.5-1-1.37c-2.22-2.9-2.53-7.25-.43-12.38C79 72.42 91.4 62.86 102.52 61.4l1 1.36c-11.11 1.47-23.57 11-27.8 21.35-2.07 5.13-1.72 9.48.46 12.39Z" style="fill:url(#Degradado_sin_nombre_13-10)"/><path class="cls-8" d="M103.56 62.76c11.12-1.47 16.7 5.72 12.46 16s-16.69 19.92-27.81 21.39-16.69-5.71-12.45-16 16.69-19.92 27.8-21.39Zm-17.1 33c8.4-1.11 17.81-8.33 21-16.13s-1-13.22-9.41-12.12S80.25 75.86 77 83.66s1 13.22 9.42 12.11"/></g><g class="cls-1"><path class="cls-12" d="m111.84 69.33.35.46c1.87 2.45 2.14 6.13.37 10.46C109 89 98.44 97.06 89.06 98.3l-.35-.46c9.38-1.24 19.92-9.33 23.5-18 1.79-4.37 1.51-8.05-.37-10.51ZM78.89 95.2l-.34-.45c1.89 2.48 5.44 3.71 10.16 3.09l.35.46c-4.73.62-8.27-.61-10.17-3.1ZM113 68.48l.34.46c-2-2.65-5.8-4-10.83-3.3l-.35-.46c4.99-.66 8.77.65 10.84 3.3Z"/><path class="cls-12" d="m77.78 96.05-.35-.45c-2-2.62-2.29-6.54-.39-11.16 3.82-9.3 15.07-17.94 25.08-19.26l.35.46c-10 1.32-21.27 10-25.09 19.25-1.89 4.62-1.6 8.54.4 11.16Z"/><path class="cls-2" d="M102.47 65.64c10-1.32 15 5.16 11.23 14.46S98.63 98 88.62 99.35s-15.05-5.16-11.24-14.46S92.45 67 102.47 65.64ZM89.06 98.3c9.38-1.24 19.92-9.34 23.5-18S111.42 65.46 102 66.7 82.1 76 78.52 84.74s1.15 14.79 10.54 13.56"/></g><g class="cls-1"><path class="cls-12" d="m99.38 85.47-.34-.46 5.65-7.72.35.45-5.66 7.73zM110.76 73l.35.45c-.35-.45-1-.64-2.11-.5l-.34-.45c1.05-.19 1.75 0 2.1.5Z"/><path class="cls-12" d="m85.24 87.33-.34-.45 14.14-1.87.34.46-14.14 1.86z"/><path class="cls-12" d="m81.73 92.17-.35-.45 3.52-4.84.34.45-3.51 4.84zM90.9 79.61l-.35-.46 3.49-4.77.35.45-3.49 4.78zM94.39 74.83l-.35-.45 14.62-1.93.34.45-14.61 1.93z"/><path class="cls-2" d="M109 72.9c1.28-.17 2 .15 2.28.82s-.08 1.73-.94 2.91L104 85.34a14 14 0 0 1-3.57 3.25 10.07 10.07 0 0 1-4 1.65l-14.7 1.93 3.51-4.84 14.14-1.86 5.62-7.73-14.1 1.87 3.49-4.78Z"/></g><path style="fill-rule:evenodd;fill:#5618b8" d="m86.98 81.42 9.68-1.66-2.74 5.01-9.9 1.43 2.96-4.78z"/><g class="cls-1"><path class="cls-8" d="M51.56 35.78c3.39 5.87 8.08 11 13.26 14L62.73 51c-5.19-3-9.88-8.12-13.27-14Z"/><path class="cls-8" d="M46.1 17.35c0 6 2.07 12.57 5.46 18.43L49.46 37C46.07 31.14 44 24.53 44 18.57s2.11-10.09 5.48-12l2.1-1.22c-3.37 1.91-5.46 6.08-5.48 12ZM64.82 49.77c5.22 3 10 3.3 13.37 1.31l-2.1 1.22C72.68 54.29 68 54 62.73 51Z"/><path class="cls-9" d="m49.48 6.52 2.1-1.22C55 3.32 59.73 3.6 65 6.61l-2.1 1.22c-5.27-3.01-10-3.29-13.42-1.31Z"/><path d="m49.56 6 2.1-1.22c4.52-2.63 10.78-2.26 17.69 1.73l-2.1 1.22C60.34 3.76 54.08 3.39 49.56 6Z" style="fill:url(#Degradado_sin_nombre_13-11)"/><path class="cls-9" d="M62.85 7.83c10.37 6 18.75 20.51 18.72 32.43S73.1 57 62.73 51 44 30.49 44 18.57 52.48 1.84 62.85 7.83Z"/><path class="cls-9" d="m78.19 51.08-2.1 1.22c3.37-2 5.46-6.12 5.48-12 0-11.92-8.35-26.44-18.72-32.43L65 6.61C75.32 12.6 83.7 27.12 83.67 39c-.02 6-2.11 10.12-5.48 12.08Z"/><path d="m86.88 65.39-2.1 1.22C89.24 64 92 58.5 92 50.67c0-15.78-11-35-24.78-42.92l2.1-1.22c13.73 7.93 24.82 27.14 24.78 42.92.01 7.83-2.76 13.35-7.22 15.94Z" style="fill:url(#Degradado_sin_nombre_13-12)"/><path class="cls-8" d="M67.25 7.75C81 15.68 92.07 34.89 92 50.67S80.82 72.81 67.09 64.88 42.27 37.74 42.31 22 53.52-.18 67.25 7.75ZM62.73 51c10.37 6 18.81 1.19 18.84-10.73S73.22 13.82 62.85 7.83 44 6.65 44 18.57 52.35 45 62.73 51"/></g><g class="cls-1"><path class="cls-12" d="m51.49 11.47.7-.41c-3.78 2.2-6.12 6.85-6.14 13.47 0 13.31 9.36 29.58 21 36.27l-.7.41c-11.59-6.69-21-23-20.95-36.28-.03-6.61 2.32-11.27 6.09-13.46Z"/><path class="cls-12" d="m81.94 62.25-.7.41c-3.82 2.22-9.11 1.91-14.94-1.45l.7-.41c5.83 3.37 11.12 3.67 14.94 1.45ZM50.49 9.76l.7-.41c4.08-2.37 9.73-2 16 1.55l-.7.4c-6.27-3.59-11.92-3.92-16-1.54Z"/><path class="cls-12" d="m82.94 64-.7.4c4-2.34 6.53-7.31 6.55-14.36 0-14.21-10-31.57-22.35-38.71l.7-.4C79.5 18 89.53 35.4 89.49 49.6 89.47 56.66 87 61.63 82.94 64Z"/><path class="cls-2" d="M66.44 11.3C78.8 18.44 88.83 35.8 88.79 50s-10.14 20-22.5 12.82S43.91 38.33 44 24.12 54.08 4.17 66.44 11.3Zm-.14 49.91c11.59 6.69 21 1.29 21.07-12S78 19.61 66.44 12.92s-21-1.3-21.09 12 9.36 29.6 20.95 36.29"/></g><g class="cls-1"><path class="cls-12" d="m53.03 40.35.7-.41 4.06 2.35-.7.4-4.06-2.34zM64.44 52.36l.69-.4-.01 4.04-.7.4.02-4.04z"/><path class="cls-2" d="m70.66 55.56.7-.4-.01 4.43-.7.41.01-4.44z"/><path class="cls-12" d="m62.86 45.98.7-.41 3.89 2.25-.7.4-3.89-2.24z"/><path class="cls-2" d="m62.88 37.83.7-.41-.02 8.15-.7.41.02-8.15z"/><path class="cls-12" d="m71.07 48.61-.7.4a1 1 0 0 1-.24.11c-.74.26-1.86 0-3.38-.9l.7-.4c1.52.85 2.64 1.15 3.38.9ZM62.9 32.58l.7-.4 3.34 1.93-.7.41-3.34-1.94z"/><path class="cls-12" d="m62.92 25.64.7-.41-.02 6.95-.7.4.02-6.94zM66.24 34.51l.7-.4.55.3a4.92 4.92 0 0 0 2.85.83l-.7.41a4.87 4.87 0 0 1-2.85-.84Z"/><path class="cls-2" d="m72.41 40.36.7-.41v.22l-.7.4v-.21zM70.65 35.12l-.69.4a1.27 1.27 0 0 1-.32.13l.7-.41a1.43 1.43 0 0 0 .31-.12Z"/><path class="cls-12" d="m53.11 14.54.7-.41 7.49 4.33-.7.4-7.49-4.32zM76 55.08l-.7.41c1.31-.76 2-2.36 2-4.79a12.89 12.89 0 0 0-1.13-5.5l.7-.4A12.81 12.81 0 0 1 78 50.29c0 2.43-.71 4.03-2 4.79ZM72.41 40.57l.7-.4a13.4 13.4 0 0 1 3.72 4.63l-.7.4a13.58 13.58 0 0 0-3.72-4.63ZM64.52 21.13l.7-.41 1.11.64-.7.4-1.11-.63z"/><path class="cls-12" d="m65.63 21.76.69-.4q.63.34 1.2.72l-.7.4c-.38-.24-.82-.48-1.19-.72ZM60.61 14.83l.7-.41 3.92 2.27-.7.4-3.92-2.26z"/><path class="cls-12" d="m64.53 17.09.7-.4-.01 4.03-.7.41.01-4.04zM75.66 39.93l-.7.41a2.48 2.48 0 0 0 .49-.38c.77-.75 1.16-2.07 1.16-3.93A12 12 0 0 0 74 28.51a19.81 19.81 0 0 0-3.27-3.28l.7-.41a20.21 20.21 0 0 1 3.27 3.28 12 12 0 0 1 2.59 7.53c0 1.85-.39 3.18-1.16 3.92a2.48 2.48 0 0 1-.47.38Z"/><path class="cls-12" d="m70.76 20.69.7-.41-.01 4.54-.7.41.01-4.54z"/><path class="cls-12" d="m66.83 18.42.7-.4 3.93 2.26-.7.41-3.93-2.27z"/><path class="cls-2" d="M76.13 45.2a12.89 12.89 0 0 1 1.13 5.5c0 2.85-.92 4.55-2.71 5.11a6.57 6.57 0 0 1-3.89-.24V60l-3.93-2.27v-4l-2.3-1.33v4l-3.93-2.26v-4L53 45.77v-5.42l4.06 2.34.06-20.38L53.09 20v-5.43l7.49 4.32v-4l3.92 2.26v4l1.11.63c.41.24.81.48 1.19.72v-4.08l3.93 2.27v4.54A19.81 19.81 0 0 1 74 28.51 12 12 0 0 1 76.61 36c0 1.86-.39 3.18-1.16 3.93a2.65 2.65 0 0 1-3 .4v.21a13.58 13.58 0 0 1 3.68 4.66Zm-5.45 3.55a3.18 3.18 0 0 0 .59-2.17A5.7 5.7 0 0 0 70.7 44a9.72 9.72 0 0 0-3.93-3.94l-.32-.19-3.57-2.06v8.15l3.89 2.24c1.52.86 2.64 1.16 3.38.9a1.1 1.1 0 0 0 .55-.37m-7.78-23.09v6.94l3.34 1.93.55.3a4.87 4.87 0 0 0 2.85.84c.7-.16 1.06-.88 1.06-2.16a5 5 0 0 0-1.15-3.24 11.08 11.08 0 0 0-2.74-2.34c-.27-.17-.56-.35-.86-.52l-3-1.75"/></g><path d="M8.71 155.3V0h120l-.07 155.36-3.18 4.45-45.9 27.05a19.48 19.48 0 0 1-20.94.06l-46.68-27.11Z" style="mix-blend-mode:hard-light;fill:url(#Degradado_sin_nombre_54)"/></g></g></g></svg>