<svg xmlns="http://www.w3.org/2000/svg" viewBox="0 0 1047.33 346.32"><defs><style>.cls-1{fill:#f9d042}</style></defs><g id="layer_2" data-name="layer 2"><g id="layer_1-2" data-name="layer 1"><g id="layer_1-2-2" data-name="layer 1-2"><path class="cls-1" d="m151 134.87 5.87 5.86h36.44l54.18-54.18-.04-.04h.06V18.89l-34.06 33.77v19.76L151 134.87zM103.93 86.74l-.43.43 38.12 38.13 24.09-24.09-14.47-14.47h-47.31zM259.05 74.19l.43.43 38.13-38.12-24.09-24.09-14.47 14.47v47.31zM110.75 2.73h28.91L125.2 17.18 110.75 2.73zM209.87 2.7h28.9l-14.45 14.45L209.87 2.7zM174.76 37.84l-24.78-24.81-14.45 14.45 39.23 39.27L214 27.51l-14.46-14.45-24.78 24.78z"/><path class="cls-1" d="m174.76 17.19 14.45-14.46-28.9-.03 14.45 14.49z"/></g><g id="layer_1-2-3" data-name="layer 1-2"><path class="cls-1" d="m199.14 213-5.86-5.87h-36.44l-54.19 54.18.04.05h-.06v67.62l34.07-33.78v-19.76L199.14 213zM246.61 261.34l.43-.43-38.13-38.12-24.08 24.08 14.46 14.47h47.32zM90.39 274.77l-.43-.43-38.13 38.13 24.09 24.09 14.47-14.47v-47.32zM110.75 346l14.45-14.45L139.66 346h-28.91zM174.76 310.85l24.78 24.78L214 321.18l-39.24-39.23-39.23 39.23 14.45 14.45 24.78-24.78zM209.87 345.96l14.45-14.45 14.45 14.45h-28.9z"/><path class="cls-1" d="m189.21 346-14.45-14.49-14.45 14.45 28.9.04z"/></g><g id="layer_1-2-4" data-name="layer 1-2"><path class="cls-1" d="m326.03 303.19 5.87 5.87h36.44l54.18-54.18-.04-.04h.06v-67.62l-34.06 33.77v19.76l-62.45 62.44zM374.18 38.06l-5.87-5.87h-36.44l-54.19 54.19.04.04h-.06v67.62l34.07-33.77V100.5l62.45-62.44zM217.52 146.59l-5.86 5.87v36.44l54.18 54.18.04-.04v.06h67.62l-33.77-34.07h-19.76l-62.45-62.44zM482.66 194.73l5.86-5.87v-36.43l-54.18-54.18-.04.03v-.06h-67.62l33.77 34.07h19.76l62.45 62.44zM421.64 86.41l.43-.44-38.13-38.12-24.08 24.09 14.46 14.47h47.32zM278.96 255.07l-.43.43 38.12 38.12 24.09-24.08-14.47-14.47h-47.31zM434.09 242.52l.42.42 38.13-38.12-24.09-24.08-14.46 14.46v47.32zM265.42 99.83l-.43-.43-38.12 38.13 24.09 24.09 14.46-14.47V99.83z"/><path class="cls-1" transform="rotate(-45 300.235 171.059)" d="M290.02 160.84h20.44v20.44h-20.44z"/><path class="cls-1" d="m349.79 135.91 24.78 24.78 14.46-14.45-39.24-39.23-39.23 39.23 14.45 14.45 24.78-24.78z"/><path class="cls-1" transform="rotate(-45 399.359 171.02)" d="M389.14 160.81h20.44v20.44h-20.44z"/><path class="cls-1" d="m349.79 206.17-24.78-24.82-14.45 14.45 39.23 39.27 39.24-39.23-14.46-14.45-24.78 24.78z"/><path class="cls-1" d="m349.79 185.51 14.45-14.45-14.45-14.49-14.44 14.45 14.44 14.49z"/></g><g id="layer_1-2-5" data-name="layer 1-2"><path class="cls-1" d="m673.45 301.78 5.87 5.87h36.43l54.19-54.18-.04-.04h.06v-67.62l-34.07 33.77v19.76l-62.44 62.44zM721.59 36.65l-5.87-5.87h-36.44L625.1 84.97l.04.04h-.06v67.62l34.07-33.77V99.09l62.44-62.44zM564.94 145.18l-5.87 5.87v36.44l54.18 54.18.05-.04v.06h67.62l-33.77-34.06h-19.77l-62.44-62.45zM830.07 193.32l5.87-5.86v-36.44l-54.18-54.18-.04.04v-.07H714.1l33.77 34.07h19.76l62.44 62.44zM769.06 85l.42-.44-38.12-38.12-24.09 24.09L721.74 85h47.32zM626.37 253.66l-.42.43 38.12 38.12 24.08-24.08-14.46-14.47h-47.32zM781.5 241.11l.43.43 38.13-38.13-24.09-24.08-14.47 14.46v47.32zM612.84 98.43l-.44-.44-38.12 38.13 24.09 24.09 14.47-14.47V98.43z"/><path class="cls-1" transform="rotate(-45 647.653 169.653)" d="M637.43 159.43h20.44v20.44h-20.44z"/><path class="cls-1" d="m697.21 134.5 24.78 24.78 14.46-14.44-39.24-39.24-39.23 39.24 14.45 14.44 24.78-24.78z"/><path class="cls-1" transform="rotate(-45 746.777 169.615)" d="M736.55 159.4h20.44v20.44h-20.44z"/><path class="cls-1" d="m697.21 204.76-24.78-24.82-14.45 14.45 39.23 39.27 39.24-39.23-14.46-14.45-24.78 24.78z"/><path class="cls-1" d="m697.21 184.1 14.45-14.45-14.45-14.49-14.45 14.45 14.45 14.49z"/></g><g id="layer_1-2-6" data-name="layer 1-2"><path class="cls-1" d="m847.65 133.46 5.88 5.86h36.43l54.18-54.18-.04-.04h.06V17.48L910.1 51.25v19.76l-62.45 62.45zM800.58 85.33l-.43.43 38.12 38.13 24.09-24.09-14.46-14.47h-47.32zM955.71 72.78l.43.43 38.12-38.12L970.17 11l-14.46 14.47v47.31zM807.41 1.32h28.9l-14.45 14.46-14.45-14.46zM906.53 1.29h28.9l-14.45 14.45-14.45-14.45zM871.42 36.43l-24.78-24.81-14.45 14.45 39.23 39.27 39.23-39.24-14.45-14.45-24.78 24.78z"/><path class="cls-1" d="m871.42 15.78 14.45-14.46-28.9-.03 14.45 14.49z"/></g><g id="layer_1-2-7" data-name="layer 1-2"><path class="cls-1" d="m895.8 211.59-5.87-5.87h-36.44l-54.18 54.18.04.05h-.06v67.62l34.07-33.77v-19.77l62.44-62.44zM943.26 259.94l.43-.44-38.12-38.12-24.09 24.09 14.47 14.47h47.31zM787.04 273.37l-.43-.44-38.12 38.13 24.09 24.09 14.46-14.47v-47.31zM807.41 344.59l14.45-14.45 14.45 14.45h-28.9zM871.42 309.44l24.78 24.78 14.45-14.45-39.23-39.23-39.23 39.23 14.45 14.45 24.78-24.78zM906.53 344.55l14.45-14.45 14.45 14.45h-28.9z"/><path class="cls-1" d="m885.87 344.59-14.45-14.49-14.45 14.45 28.9.04z"/></g><g id="layer_1-2-8" data-name="layer 1-2"><path class="cls-1" d="m498.86 132.93 5.88 5.87h36.43l54.19-54.18-.04-.04h.06V16.96l-34.07 33.77v19.76l-62.45 62.44zM451.79 84.81l-.43.43 38.13 38.12 24.08-24.09-14.46-14.46h-47.32zM606.92 72.26l.43.43 38.13-38.13-24.1-24.08-14.46 14.46v47.32zM458.62.8h28.9l-14.45 14.45L458.62.8zM557.74.76h28.9l-14.45 14.45L557.74.76zM522.63 35.91l-24.78-24.82-14.45 14.45 39.23 39.27 39.23-39.23-14.45-14.45-24.78 24.78z"/><path class="cls-1" d="M522.63 15.25 537.08.8l-28.9-.04 14.45 14.49z"/></g><g id="layer_1-2-9" data-name="layer 1-2"><path class="cls-1" d="m547.01 211.06-5.87-5.87H504.7l-54.18 54.19.04.04h-.06v67.62l34.07-33.77v-19.76l62.44-62.45zM594.47 259.41l.43-.43-38.12-38.13-24.09 24.09 14.47 14.47h47.31zM438.25 272.84l-.43-.43-38.12 38.12 24.09 24.09 14.46-14.47v-47.31zM458.62 344.06l14.45-14.45 14.45 14.45h-28.9zM522.63 308.92l24.78 24.78 14.45-14.45-39.23-39.24-39.23 39.24 14.45 14.45 24.78-24.78zM557.74 344.03l14.45-14.45 14.45 14.45h-28.9z"/><path class="cls-1" d="m537.08 344.06-14.45-14.49-14.45 14.46 28.9.03z"/></g><path class="cls-1" d="M980.49 1.21 1004.28 25l5.87-5.87V1.21h-29.66zM632.1.4l23.78 23.78 5.87-5.86V.4H632.1zM283.86 1.81l23.79 23.79 5.87-5.87V1.81h-29.66zM158.47 74.77 124.7 40.71h-19.76l-38.2-38.2H36.62v18.06l54.19 54.18.04-.04v.06h67.62zM505.08 72.26 471.3 38.2h-19.76L413.34 0h-30.11v18.06l54.18 54.18.04-.04v.06h67.63zM855.1 73.94l-33.77-34.07h-19.77l-38.19-38.2h-30.12v18.07l54.18 54.18.04-.05v.07h67.63zM67.29 346.32l-24.8-24.79-5.87 5.87v18.92h30.67zM415.12 344.86l-24.79-24.8-5.87 5.87v18.93h30.66zM764.15 345.51l-24.8-24.79-5.87 5.86v18.93h30.67zM284.09 346.14h29.4v-18.77l-54.18-54.19-.04.04v-.06h-67.62l33.77 34.07h19.76l38.91 38.91zM632.42 344.53h29.4v-18.77l-54.19-54.18-.04.04v-.06h-67.62l33.77 34.06h19.76l38.92 38.91zM980.95 345h29.4v-18.77l-54.18-54.19-.04.04v-.06h-67.62l33.77 34.07h19.76L980.95 345z"/><g id="layer_1-2-10" data-name="layer 1-2"><path class="cls-1" d="m914.18 145.18-5.87 5.87v36.44l54.18 54.18.04-.04v.06h67.63l-33.78-34.06h-19.76l-62.44-62.45zM975.61 253.66l-.43.43 38.13 38.12 24.08-24.08-14.46-14.47h-47.32zM962.08 98.43l-.44-.44-38.12 38.13 24.09 24.09 14.47-14.47V98.43z"/><path class="cls-1" transform="rotate(-45 996.893 169.653)" d="M986.67 159.43h20.44v20.44h-20.44z"/><path class="cls-1" d="M1046.45 184.1v-28.94L1032 169.61l14.45 14.49z"/></g><path class="cls-1" d="m1047.05 277.42-24.37 24.36 5.88 5.87h18.49v-30.23zM1047.33 30.78h-18.81l-54.18 54.19.04.04h-.06v67.62l34.07-33.77V99.09l38.94-38.94V30.78zM1046.77 204.44l-.32.32-24.78-24.82-14.45 14.45 39.23 39.27.32-.32v-28.9zM1047.05 106.2l-.6-.6-39.23 39.24 14.45 14.44 24.78-24.78.6.6v-28.9z"/><g id="layer_1-2-11" data-name="layer 1-2"><path class="cls-1" d="M70.7 213.32H50.94l-33.77 34.07h67.62v-.06l.04.04 54.19-54.18v-36.44l-5.87-5.87-62.45 62.44zM24.4 259.36 9.93 273.82l24.09 24.09 38.12-38.12-.42-.43H24.4zM85.25 151.44l14.47 14.47 24.09-24.09-38.12-38.13-.44.43v47.32z"/><path class="cls-1" transform="rotate(-45 50.432 175.35)" d="M40.22 165.13h20.44v20.44H40.22z"/><path class="cls-1" d="M15.33 175.31.88 160.86v28.94l14.45-14.49z"/></g><path class="cls-1" d="m.28 283.12 24.36 24.36-5.87 5.87H.28v-30.23zM0 36.48h18.81l54.18 54.18-.04.04h.06v67.63l-34.07-33.77v-19.77L0 65.85V36.48zM.56 210.14l.32.32 24.78-24.82 14.45 14.45L.88 239.36l-.32-.32v-28.9zM.28 111.9l.6-.6 39.23 39.23-14.45 14.45L.88 140.2l-.6.6v-28.9z"/></g></g></svg>