<svg xmlns="http://www.w3.org/2000/svg" viewBox="0 0 543.02 543.02">
  <defs><style>.cls-1{fill:#f9ce41;}.cls-2{fill:#f5ac0e;}.cls-3{fill:#f7c219;}</style></defs>
  <g>
    <g>
    <polygon class="cls-1" points="224.32 531.51 235.84 543.02 307.3 543.02 413.57 436.75 413.49 436.67 413.61 436.67 413.61 304.05 346.8 370.28 346.8 409.04 224.32 531.51"/>
    <polygon class="cls-1" points="318.75 11.51 307.24 0 235.77 0 129.5 106.27 129.58 106.35 129.46 106.35 129.46 238.98 196.28 172.74 196.28 133.98 318.75 11.51"/>
    <polygon class="cls-2" points="11.51 224.37 0 235.88 0 307.35 106.27 413.61 106.35 413.53 106.35 413.65 238.98 413.65 172.74 346.84 133.98 346.84 11.51 224.37"/>
    <polygon class="cls-2" points="531.51 318.79 543.02 307.28 543.02 235.82 436.75 129.55 436.67 129.63 436.67 129.51 304.05 129.51 370.28 196.32 409.04 196.32 531.51 318.79"/>
    <polygon class="cls-1" points="411.84 106.33 412.68 105.48 337.91 30.71 290.67 77.95 319.04 106.33 411.84 106.33"/>
    <polygon class="cls-1" points="132 437.13 131.16 437.97 205.93 512.74 253.17 465.5 224.8 437.13 132 437.13"/>
    <polygon class="cls-2" points="436.25 412.51 437.09 413.35 511.87 338.58 464.62 291.34 436.25 319.71 436.25 412.51"/>
    <polygon class="cls-2" points="105.45 132.67 104.6 131.82 29.83 206.6 77.08 253.84 105.45 225.47 105.45 132.67"/>
    <rect class="cls-3" x="153.69" y="252.32" width="40.08" height="40.08" transform="translate(-141.7 202.62) rotate(-45)"/>
    <polygon class="cls-3" points="270.93 203.43 319.53 252.03 347.88 223.69 270.93 146.74 193.99 223.69 222.33 252.03 270.93 203.43"/>
    <rect class="cls-3" x="348.09" y="252.25" width="40.08" height="40.08" transform="translate(-84.71 340.06) rotate(-45)"/>
    <polygon class="cls-3" points="270.93 341.22 222.33 292.55 193.99 320.89 270.93 397.91 347.88 320.96 319.53 292.62 270.93 341.22"/>
    <polygon class="cls-3" points="270.93 300.71 299.27 272.36 270.93 243.94 242.59 272.29 270.93 300.71"/>
  </g>
  </g>
</svg>
