<svg xmlns="http://www.w3.org/2000/svg" xmlns:xlink="http://www.w3.org/1999/xlink" viewBox="0 0 324.09 316.78"><defs><linearGradient id="linear-gradient-26" x1="117.71" y1="121.74" x2="148" y2="121.74" gradientUnits="userSpaceOnUse"><stop offset="0" stop-color="#7c3adf"/><stop offset=".04" stop-color="#7733dc"/><stop offset=".14" stop-color="#6e28d8"/><stop offset=".25" stop-color="#6b24d6"/><stop offset=".56" stop-color="#9a60ee"/><stop offset=".97" stop-color="#7734dc"/></linearGradient><linearGradient id="linear-gradient-50" x1="185.8" y1="194.87" x2="143.46" y2="194.87" gradientUnits="userSpaceOnUse"><stop offset=".04" stop-color="#f7aa90"/><stop offset=".23" stop-color="#f9b996"/><stop offset=".61" stop-color="#ffe2a6"/><stop offset=".63" stop-color="#ffe4a7"/><stop offset=".87" stop-color="#f7aa90"/></linearGradient><linearGradient id="linear-gradient-3" x1="86.42" y1="250.75" x2="94.52" y2="262.93" xlink:href="#linear-gradient-2"/><linearGradient id="linear-gradient-4" x1="266.63" y1="239.58" x2="418.7" y2="194.04" gradientUnits="userSpaceOnUse"><stop offset=".04" stop-color="#9f19ab"/><stop offset=".24" stop-color="#ae25b1"/><stop offset=".65" stop-color="#d744bf"/><stop offset="1" stop-color="#ff63ce"/></linearGradient><linearGradient id="linear-gradient-5" x1="216.52" y1="251.14" x2="267.18" y2="239.79" xlink:href="#linear-gradient-4"/><linearGradient id="linear-gradient-6" x1="228.46" y1="243.05" x2="190.08" y2="243.05" gradientUnits="userSpaceOnUse"><stop offset="0" stop-color="#9f19ab"/><stop offset=".17" stop-color="#ae25b1"/><stop offset=".49" stop-color="#d744bf"/><stop offset=".77" stop-color="#ff63ce"/><stop offset=".92" stop-color="#dc48c1"/></linearGradient><linearGradient id="linear-gradient-7" x1="96.13" y1="286.59" x2="239.84" y2="286.59" gradientUnits="userSpaceOnUse"><stop offset=".07" stop-color="#fcce9e"/><stop offset=".52" stop-color="#fac099"/><stop offset=".59" stop-color="#ffe1a6"/><stop offset=".59" stop-color="#ffe4a7"/><stop offset=".61" stop-color="#fdd4a1"/><stop offset=".64" stop-color="#fabd98"/><stop offset=".67" stop-color="#f8af92"/><stop offset=".7" stop-color="#f7aa90"/><stop offset="1" stop-color="#f9b695"/></linearGradient><linearGradient id="linear-gradient-8" x1="82.69" y1="265.1" x2="121.11" y2="256.49" gradientUnits="userSpaceOnUse"><stop offset=".04" stop-color="#ffa98c"/><stop offset=".32" stop-color="#ffb892"/><stop offset=".86" stop-color="#fee1a3"/><stop offset="1" stop-color="#feeca8"/></linearGradient><linearGradient id="linear-gradient-9" x1="239.64" y1="-53.85" x2="148.01" y2="120.78" gradientUnits="userSpaceOnUse"><stop offset=".04" stop-color="#6b24d6"/><stop offset=".29" stop-color="#7733dc"/><stop offset=".79" stop-color="#975ced"/><stop offset="1" stop-color="#a56ef4"/></linearGradient><linearGradient id="linear-gradient-10" x1="176.47" y1="121.44" x2="331.14" y2="37.78" xlink:href="#linear-gradient-9"/><linearGradient id="linear-gradient-11" x1="166.55" y1="138.62" x2="231.13" y2="218.1" xlink:href="#linear-gradient-9"/><linearGradient id="linear-gradient-12" x1="184.19" y1="135.71" x2="338.86" y2="52.04" xlink:href="#linear-gradient-9"/><linearGradient id="linear-gradient-13" x1="190.13" y1="139.52" x2="190.15" y2="139.55" xlink:href="#linear-gradient-9"/><linearGradient id="linear-gradient-14" x1="190.81" y1="139.27" x2="190.82" y2="139.29" xlink:href="#linear-gradient-9"/><linearGradient id="linear-gradient-15" x1="-7.88" y1="162.08" x2="265.16" y2="100.87" xlink:href="#linear-gradient-9"/><linearGradient id="linear-gradient-16" x1="192.13" y1="131.28" x2="225.47" y2="131.28" gradientUnits="userSpaceOnUse"><stop offset="0" stop-color="#6b24d6"/><stop offset=".07" stop-color="#712dd9"/><stop offset=".16" stop-color="#7734dc"/><stop offset=".32" stop-color="#8c4fe7"/><stop offset=".48" stop-color="#a56ef4"/><stop offset=".87" stop-color="#6b24d6"/></linearGradient><linearGradient id="linear-gradient-17" x1="189.78" y1="117.24" x2="189.81" y2="117.28" xlink:href="#linear-gradient-9"/><linearGradient id="linear-gradient-18" x1="190.5" y1="116.91" x2="190.61" y2="117.04" xlink:href="#linear-gradient-9"/><linearGradient id="linear-gradient-19" x1="113.79" y1="116.83" x2="114.13" y2="116.75" xlink:href="#linear-gradient-9"/><linearGradient id="linear-gradient-20" x1="53.8" y1="120.16" x2="139.99" y2="100.84" xlink:href="#linear-gradient-9"/><linearGradient id="linear-gradient-21" x1="114.5" y1="116.83" x2="114.63" y2="116.8" xlink:href="#linear-gradient-9"/><linearGradient id="linear-gradient-22" x1="108.2" y1="139.76" x2="116.82" y2="137.83" xlink:href="#linear-gradient-9"/><linearGradient id="linear-gradient-23" x1="113.47" y1="139.49" x2="115.12" y2="139.12" xlink:href="#linear-gradient-9"/><linearGradient id="linear-gradient-24" x1="115.62" y1="139.1" x2="115.77" y2="139.07" xlink:href="#linear-gradient-9"/><linearGradient id="linear-gradient-25" x1="136.95" y1="146.55" x2="137.15" y2="146.51" xlink:href="#linear-gradient-9"/><linearGradient id="linear-gradient-2" x1="-62.02" y1="255.61" x2="136.64" y2="211.08" gradientUnits="userSpaceOnUse"><stop offset=".04" stop-color="#138bbd"/><stop offset=".23" stop-color="#169ac7"/><stop offset=".59" stop-color="#1fc3df"/><stop offset="1" stop-color="#2af6ff"/></linearGradient><linearGradient id="linear-gradient-27" x1="165.43" y1="-23.51" x2="63.05" y2="171.61" xlink:href="#linear-gradient-2"/><linearGradient id="linear-gradient-28" x1="121.22" y1="142.85" x2="156.66" y2="132.24" xlink:href="#linear-gradient-2"/><linearGradient id="linear-gradient-29" x1=".01" y1="155.25" x2=".01" y2="155.26" xlink:href="#linear-gradient-2"/><linearGradient id="linear-gradient-30" x1="80.71" y1="174.63" x2="143.83" y2="174.63" xlink:href="#linear-gradient"/><linearGradient id="linear-gradient-31" x1="-65.44" y1="210.38" x2="140.21" y2="164.28" xlink:href="#linear-gradient-2"/><linearGradient id="linear-gradient-32" x1="94.26" y1="176.81" x2="127.77" y2="227.2" xlink:href="#linear-gradient-2"/><linearGradient id="linear-gradient-33" x1="106.4" y1="195.06" x2="120" y2="215.52" xlink:href="#linear-gradient-2"/><linearGradient id="linear-gradient-34" x1="75.95" y1="189.01" x2="109.37" y2="239.26" xlink:href="#linear-gradient-2"/><linearGradient id="linear-gradient-35" x1="88.05" y1="207.21" x2="101.62" y2="227.62" xlink:href="#linear-gradient-2"/><linearGradient id="linear-gradient-36" x1="94.26" y1="232.81" x2="127.77" y2="283.2" xlink:href="#linear-gradient-2"/><linearGradient id="linear-gradient-37" x1="106.4" y1="251.06" x2="120" y2="271.52" xlink:href="#linear-gradient-2"/><linearGradient id="linear-gradient" x1="80.71" y1="220.63" x2="143.83" y2="220.63" gradientUnits="userSpaceOnUse"><stop offset="0" stop-color="#1bb0d4"/><stop offset=".11" stop-color="#1ebfdd"/><stop offset=".24" stop-color="#23d8ec"/><stop offset=".37" stop-color="#1ec0dd"/><stop offset=".44" stop-color="#1bb0d4"/><stop offset=".5" stop-color="#1bb0d4"/><stop offset=".51" stop-color="#1bb0d4"/><stop offset=".55" stop-color="#20c6e2"/><stop offset=".56" stop-color="#1bafd4"/><stop offset=".58" stop-color="#179bc7"/><stop offset=".61" stop-color="#148fc0"/><stop offset=".63" stop-color="#138bbd"/></linearGradient><linearGradient id="linear-gradient-38" x1="180.65" y1="153.1" x2="324.05" y2="153.1" xlink:href="#linear-gradient-4"/><linearGradient id="linear-gradient-39" x1="337.97" y1="-9.74" x2="235.59" y2="185.37" xlink:href="#linear-gradient-4"/><linearGradient id="linear-gradient-40" x1="254.59" y1="137" x2="220.8" y2="137" gradientUnits="userSpaceOnUse"><stop offset="0" stop-color="#9f19ab"/><stop offset=".14" stop-color="#ae25b1"/><stop offset=".4" stop-color="#d744bf"/><stop offset=".63" stop-color="#ff63ce"/><stop offset=".87" stop-color="#dc48c1"/></linearGradient><linearGradient id="linear-gradient-41" x1="280.31" y1="167.22" x2="306.64" y2="221.88" xlink:href="#linear-gradient-4"/><linearGradient id="linear-gradient-42" x1="265.85" y1="192.48" x2="423.19" y2="145.36" xlink:href="#linear-gradient-4"/><linearGradient id="linear-gradient-43" x1="148.71" y1="175.56" x2="239.15" y2="155.29" xlink:href="#linear-gradient-4"/><linearGradient id="linear-gradient-44" x1="214.76" y1="204.2" x2="269.33" y2="191.97" xlink:href="#linear-gradient-4"/><linearGradient id="linear-gradient-45" x1="211.77" y1="200.23" x2="238.11" y2="254.9" xlink:href="#linear-gradient-4"/><linearGradient id="linear-gradient-46" x1="228.46" y1="195.72" x2="190.08" y2="195.72" xlink:href="#linear-gradient-6"/><linearGradient id="linear-gradient-47" x1="238.69" y1="63.09" x2="150.67" y2="230.84" xlink:href="#linear-gradient-8"/><linearGradient id="linear-gradient-48" x1="96.13" y1="240.43" x2="239.84" y2="240.43" xlink:href="#linear-gradient-7"/><linearGradient id="linear-gradient-49" x1="69.59" y1="211.87" x2="143.75" y2="195.25" xlink:href="#linear-gradient-8"/><radialGradient id="radial-gradient-9" cx="99.43" cy="159.38" r="23.01" xlink:href="#radial-gradient"/><radialGradient id="radial-gradient-42" cx="61.15" cy="61.43" r="12.85" xlink:href="#radial-gradient-24"/><radialGradient id="radial-gradient" cx="217.87" cy="95.18" r="9.69" gradientUnits="userSpaceOnUse"><stop offset="0" stop-color="#fff"/><stop offset=".07" stop-color="#d8d8d8"/><stop offset=".16" stop-color="#a6a6a6"/><stop offset=".26" stop-color="#797979"/><stop offset=".37" stop-color="#545454"/><stop offset=".47" stop-color="#353535"/><stop offset=".59" stop-color="#1e1e1e"/><stop offset=".7" stop-color="#0d0d0d"/><stop offset=".84" stop-color="#030303"/><stop offset="1"/></radialGradient><radialGradient id="radial-gradient-2" cx="209.25" cy="131.47" r="23.81" xlink:href="#radial-gradient"/><radialGradient id="radial-gradient-3" cx="98.81" cy="111.15" r="13.34" xlink:href="#radial-gradient"/><radialGradient id="radial-gradient-7" cx="35.2" cy="173.53" r="51.75" xlink:href="#radial-gradient"/><radialGradient id="radial-gradient-8" cx="124.36" cy="133.59" r="7.17" xlink:href="#radial-gradient"/><radialGradient id="radial-gradient-4" cx="132.74" cy="108.68" r="12.15" xlink:href="#radial-gradient"/><radialGradient id="radial-gradient-12" cx="199.81" cy="160.97" r="15.52" xlink:href="#radial-gradient"/><radialGradient id="radial-gradient-13" cx="239.96" cy="128.83" r="11.16" xlink:href="#radial-gradient"/><radialGradient id="radial-gradient-14" cx="-510.99" cy="31391.25" r="15.68" gradientTransform="matrix(-.01 1.03 -.24 0 7575.86 800.64)" gradientUnits="userSpaceOnUse"><stop offset="0" stop-color="#ad3185"/><stop offset=".1" stop-color="#8a276a"/><stop offset=".24" stop-color="#601b4a"/><stop offset=".39" stop-color="#3e112f"/><stop offset=".54" stop-color="#230a1b"/><stop offset=".69" stop-color="#0f040c"/><stop offset=".84" stop-color="#040103"/><stop offset="1"/></radialGradient><radialGradient id="radial-gradient-15" cx="202.06" cy="195.15" r="36.07" xlink:href="#radial-gradient"/><radialGradient id="radial-gradient-16" cx="299.98" cy="177.22" r="38.5" xlink:href="#radial-gradient"/><radialGradient id="radial-gradient-10" cx="-1173.09" cy="37510.84" r="15.68" gradientTransform="matrix(-.01 .92 -.18 0 6821.09 1324.47)" gradientUnits="userSpaceOnUse"><stop offset="0" stop-color="#972a74"/><stop offset=".04" stop-color="#8a266a"/><stop offset=".19" stop-color="#601b4a"/><stop offset=".35" stop-color="#3d112f"/><stop offset=".51" stop-color="#230a1b"/><stop offset=".67" stop-color="#0f040c"/><stop offset=".83" stop-color="#040103"/><stop offset="1"/></radialGradient><radialGradient id="radial-gradient-11" cx="-671.71" cy="2239.29" r="17.05" gradientTransform="matrix(.52 0 0 1.04 446.85 -2159.26)" xlink:href="#radial-gradient-10"/><radialGradient id="radial-gradient-5" cx="-1269.88" cy="32343.62" r="15.68" gradientTransform="matrix(-.01 .91 -.22 0 7404.65 1364.69)" gradientUnits="userSpaceOnUse"><stop offset="0" stop-color="#4916a1"/><stop offset=".07" stop-color="#3f138a"/><stop offset=".22" stop-color="#2c0d60"/><stop offset=".37" stop-color="#1c083e"/><stop offset=".52" stop-color="#100523"/><stop offset=".68" stop-color="#07020f"/><stop offset=".83" stop-color="#020104"/><stop offset="1"/></radialGradient><radialGradient id="radial-gradient-6" cx="-1293.1" cy="32682.29" r="15.68" xlink:href="#radial-gradient-5"/><radialGradient id="radial-gradient-17" cx="205.09" cy="195.03" r=".11" xlink:href="#radial-gradient"/><radialGradient id="radial-gradient-18" cx="179" cy="189.97" r="5.84" xlink:href="#radial-gradient"/><radialGradient id="radial-gradient-19" cx="105.41" cy="197.93" r="8.34" xlink:href="#radial-gradient"/><radialGradient id="radial-gradient-20" cx="145.64" cy="231.87" r="53.62" xlink:href="#radial-gradient"/><radialGradient id="radial-gradient-21" cx="386.23" cy="37035.72" r="12.79" gradientTransform="matrix(-.01 1.29 -.18 0 6838.28 -163.38)" xlink:href="#radial-gradient-10"/><radialGradient id="radial-gradient-22" cx="-1175.34" cy="37476.71" r="12.79" gradientTransform="matrix(-.01 .92 -.18 0 6821 1355.51)" xlink:href="#radial-gradient-10"/><radialGradient id="radial-gradient-23" cx="-592.92" cy="-1326.59" r="21.84" gradientTransform="matrix(.48 -.2 .25 .61 799.36 952.16)" xlink:href="#radial-gradient-10"/><radialGradient id="radial-gradient-24" cx="253.54" cy="58.04" r="16.6" gradientUnits="userSpaceOnUse"><stop offset="0" stop-color="#dc3daa"/><stop offset=".09" stop-color="#c23696"/><stop offset=".33" stop-color="#832465"/><stop offset=".55" stop-color="#50163e"/><stop offset=".75" stop-color="#2c0c22"/><stop offset=".9" stop-color="#160611"/><stop offset="1" stop-color="#0e040b"/></radialGradient><radialGradient id="radial-gradient-25" cx="253.54" cy="58.03" r="5.4" xlink:href="#radial-gradient-24"/><radialGradient id="radial-gradient-26" cx="211.21" cy="21.4" r="12.26" xlink:href="#radial-gradient-24"/><radialGradient id="radial-gradient-27" cx="211.21" cy="36.36" r="3.06" xlink:href="#radial-gradient-24"/><radialGradient id="radial-gradient-28" cx="211.03" cy="24.75" r="5.97" xlink:href="#radial-gradient-24"/><radialGradient id="radial-gradient-29" cx="-522.01" cy="2991.79" r="11.3" gradientTransform="matrix(.87 .5 0 1.15 613.04 -3153.62)" xlink:href="#radial-gradient-24"/><radialGradient id="radial-gradient-30" cx="-518.32" cy="2988.44" r="4.12" gradientTransform="matrix(.87 .5 0 1.15 613.04 -3153.62)" xlink:href="#radial-gradient-24"/><radialGradient id="radial-gradient-31" cx="301.24" cy="103.67" r="13.38" xlink:href="#radial-gradient-24"/><radialGradient id="radial-gradient-32" cx="224.01" cy="134.86" r="57.72" xlink:href="#radial-gradient-24"/><radialGradient id="radial-gradient-33" cx="210.3" cy="78.58" r="35.67" xlink:href="#radial-gradient-24"/><radialGradient id="radial-gradient-34" cx="111.3" cy="93.83" r="46.21" xlink:href="#radial-gradient-24"/><radialGradient id="radial-gradient-35" cx="83.88" cy="150.66" r="62.48" xlink:href="#radial-gradient-24"/><radialGradient id="radial-gradient-36" cx="275.34" cy="116.14" r="18.35" xlink:href="#radial-gradient-24"/><radialGradient id="radial-gradient-37" cx="191.51" cy="57.54" r="20.38" xlink:href="#radial-gradient-24"/><radialGradient id="radial-gradient-38" cx="116.42" cy="19.03" r="16.7" xlink:href="#radial-gradient-24"/><radialGradient id="radial-gradient-39" cx="116.42" cy="19.47" r="8.79" xlink:href="#radial-gradient-24"/><radialGradient id="radial-gradient-40" cx="44.7" cy="80.86" r="6.04" xlink:href="#radial-gradient-24"/><radialGradient id="radial-gradient-41" cx="52.93" cy="71.14" r="9.4" xlink:href="#radial-gradient-24"/><style>.cls-29{mix-blend-mode:color-dodge}.cls-78{mix-blend-mode:screen}</style></defs><g style="isolation:isolate"><g id="layer_2" data-name="layer 2"><g id="Layer_1" data-name="Layer 1"><g style="opacity:.3"><path d="M117.05 221.8c-1.33.77-3.65.3-3.84-.79-.39-2.31-2.24-4.55-5.55-6.23-5.84-3-15.73-3-21.57-.09-7.26 3.64-7.52 10-.8 13.89a23.07 23.07 0 0 0 10.11 2.75c1.14.07 1.88.59 2 1.16V225a24.61 24.61 0 0 1 10.28 2.24c3.31 1.68 5.16 3.92 5.55 6.23.19 1.09 2.51 1.56 3.84.79l25.24-14.57 1.11-.24v-12.87Z" style="fill:url(#linear-gradient);opacity:.3"/><path d="M2.24 209.43A3.86 3.86 0 0 1 0 206.38v12c-.2 1.26.53 2.56 2.21 3.53l68.12 39.33v-12.5Z" style="fill:url(#linear-gradient-2);opacity:.3"/><path d="m96.74 233.52-26.38 15.24v12.5L96.74 246a1.1 1.1 0 0 0 .63-.82v-12.61a1 1 0 0 1-.63.95Z" style="fill:url(#linear-gradient-3);opacity:.3"/><path d="M324 218v-12.5c0 1.15-.68 2.31-2.2 3.19l-67.69 39.08v12.5l67.69-39.08c1.56-.91 2.29-2.08 2.2-3.19Z" style="fill:url(#linear-gradient-4);opacity:.2"/><path d="M227.33 232.25a4.46 4.46 0 0 0-3-.39v12.5a4.46 4.46 0 0 1 3 .39l26.82 15.49v-12.5Z" style="fill:url(#linear-gradient-5);opacity:.2"/><path d="M222.45 233.29c-.23 2.12-1.74 4.2-4.54 5.81-6.23 3.6-16.42 3.52-22.56-.23a8.38 8.38 0 0 1-4.15-5.07h-.11v10.83c-.2 2.4 1.22 4.85 4.26 6.71 6.14 3.75 16.33 3.83 22.56.23 2.8-1.61 4.31-3.69 4.54-5.81.08-.71.89-1.23 1.89-1.43v-12.5c-1 .23-1.81.75-1.89 1.46Z" style="fill:url(#linear-gradient-6);opacity:.2"/><path d="M186.39 302.34c-2.33 2-7 2.54-10.54 1.18l-79.9-31V285l79.9 31c3.49 1.36 8.21.83 10.54-1.18l53.27-45.93v-12.5Z" style="fill:url(#linear-gradient-7);opacity:.2"/><path d="M103.41 260.34c-4.17-1.63-6.58-4.2-7-6.88v11.17a6.42 6.42 0 0 0 2.37 5.37l9-6c1.38-1.1-1.07-2.38-4.37-3.66Z" style="fill:url(#linear-gradient-8);opacity:.2"/></g><path d="M118.65 109c4.79-4.7 15.55-6.11 23.5-2.93 6.39 2.56 8.84 8.1 5.36 12.08-2 2.26-5.27 3.84-9 4.62-1.78.37-2 1.78-.34 2.34l32.24 11 19.13-18.76c1.24-1.21 4.41-1 5.18.31 1.24 2.18 3.9 4.09 7.74 5.25 7.21 2.17 16.22.77 20.51-3.18 4.72-4.34 2.26-10.06-5.37-12.67a25.93 25.93 0 0 0-10.9-1.13c-2.41.26-4.23-1.26-3-2.48l19.13-18.75L140 56.42c-3.62-1.24-8.28-.56-10.4 1.53L81 105.59l32.28 11c1.61.55 3.64-.22 3.34-1.28-.62-2.06.01-4.31 2.03-6.31Z" style="fill:url(#linear-gradient-9)"/><path d="M206.66 106a25.93 25.93 0 0 1 10.9 1.13 17.08 17.08 0 0 1 3.64 1.71l1.61-1.57V84.78l-19.13 18.75c-1.25 1.22.57 2.74 2.98 2.47Z" style="fill:url(#linear-gradient-10)"/><path d="M225.21 116a7 7 0 0 1-2.28 3.77c-4.29 4-13.3 5.35-20.51 3.18-3.84-1.16-6.5-3.07-7.74-5.25-.77-1.34-3.94-1.52-5.18-.31l-19.13 18.76-32.24-11c-1.64-.56-1.44-2 .34-2.34 3.77-.78 7.06-2.36 9-4.62 3.48-4 1-9.52-5.36-12.08-8-3.18-18.71-1.77-23.5 2.93-2 2-2.64 4.21-2 6.32.3 1.06-1.73 1.83-3.34 1.28L81 105.59v22.5l32.28 11c1.61.55 3.64-.22 3.34-1.28-.6-2.11 0-4.35 2-6.32 3.83-3.76 11.47-5.4 18.44-4.29v19c-.21.52.11 1.1 1 1.42l32.24 11 19.13-18.76c1.24-1.21 4.41-1 5.18.31 1.24 2.18 3.9 4.09 7.74 5.25 7.21 2.17 16.22.77 20.51-3.18 2-1.82 2.68-3.88 2.28-5.86Z" style="fill:url(#linear-gradient-11)"/><path d="M192.38 139.15v-22.5a3.8 3.8 0 0 0-2.88.78l-19.13 18.76v22.5l19.13-18.76a3.8 3.8 0 0 1 2.88-.78Z" style="fill:url(#linear-gradient-12)"/><path d="M190.19 139.49h-.13Z" style="fill:url(#linear-gradient-13)"/><path d="M190.84 139.26Z" style="fill:url(#linear-gradient-14)"/><path d="M138.13 125.15c-1.64-.56-1.44-2 .34-2.34 3.77-.78 7.06-2.36 9-4.62 3.48-4 1-9.52-5.36-12.08-8-3.18-18.71-1.77-23.5 2.93-2 2-2.64 4.21-2 6.32.3 1.06-1.73 1.83-3.34 1.28L81 105.59v22.5l32.28 11c1.61.55 3.64-.22 3.34-1.28-.6-2.11 0-4.35 2-6.32 3.83-3.76 11.47-5.4 18.44-4.29v19c-.21.52.11 1.1 1 1.42l32.24 11v-22.5Z" style="fill:url(#linear-gradient-15)"/><path d="M225.21 136.45V116a7 7 0 0 1-2.28 3.77c-4.29 4-13.3 5.35-20.51 3.18-3.84-1.15-6.5-3.07-7.74-5.25-.56-1-2.41-1.33-3.84-1a4.66 4.66 0 0 1 1.54-.11v22.5a2.91 2.91 0 0 1 2.3 1.09c1.24 2.18 3.9 4.1 7.74 5.25 7.21 2.17 16.22.77 20.51-3.18 1.98-1.76 2.68-3.82 2.28-5.8Z" style="fill:url(#linear-gradient-16)"/><path d="M190.06 117a2.54 2.54 0 0 0-.56.39 2.54 2.54 0 0 1 .56-.39Z" style="fill:url(#linear-gradient-17)"/><path d="M190.77 116.77a3.32 3.32 0 0 0-.58.22 3.32 3.32 0 0 1 .58-.22Z" style="fill:url(#linear-gradient-18)"/><path d="M113.9 116.79Z" style="fill:url(#linear-gradient-19)"/><path style="fill:url(#linear-gradient-20)" d="m110.93 115.84-29.94-10.25 29.94 10.25z"/><path d="M114.59 116.82Z" style="fill:url(#linear-gradient-21)"/><path d="m113.27 139.14-2.34-.8 2.34.8a3.6 3.6 0 0 0 .63.15 3.6 3.6 0 0 1-.63-.15Z" style="fill:url(#linear-gradient-22)"/><path d="M114 139.29a3.26 3.26 0 0 0 .54 0 3.26 3.26 0 0 1-.54 0Z" style="fill:url(#linear-gradient-23)"/><path d="M115.71 139.08s-.06.02 0 0Z" style="fill:url(#linear-gradient-24)"/><path d="M137.05 146.38a.76.76 0 0 0 0 .3Z" style="fill:url(#linear-gradient-25)"/><path d="M137.05 124.25c-.17-.58.32-1.21 1.42-1.44 3.77-.78 7.06-2.36 9-4.62 3.48-4 1-9.52-5.36-12.08-8-3.18-18.71-1.77-23.5 2.93-2 2-2.64 4.21-2 6.32.14.51-.26 1-.9 1.22v22.49c.2-.1 1.07-.58.9-1.21-.6-2.11 0-4.35 2-6.32 3.82-3.75 11.44-5.39 18.4-4.3Z" style="fill:url(#linear-gradient-26)"/><g class="cls-29"><path d="m203.59 104.13.09-.1 19.13-18.75-1.14-.39-18 17.64a1.07 1.07 0 0 0-.08 1.6Z" style="fill:url(#radial-gradient)"/><path d="M222.93 118.81c-4.29 4-13.3 5.35-20.51 3.18-3.84-1.15-6.5-3.07-7.74-5.25-.77-1.34-3.94-1.52-5.18-.31l-19.13 18.76-32.24-11a2.1 2.1 0 0 1-.7-.39c-.72.58-.53 1.47.7 1.89l32.24 11 19.13-18.76c1.24-1.21 4.41-1 5.18.31 1.24 2.18 3.9 4.1 7.74 5.25 7.21 2.17 16.22.77 20.51-3.18a6.26 6.26 0 0 0 2.33-5.55 6.89 6.89 0 0 1-2.33 4.05Z" style="fill:url(#radial-gradient-2)"/><path d="M116.44 115.08a3.15 3.15 0 0 1-3.17.56L82.12 105 81 106.09l32.28 11c1.61.55 3.64-.22 3.34-1.28a5.44 5.44 0 0 1-.18-.73Z" style="fill:url(#radial-gradient-3)"/><path d="M149 114c.46-3.35-2.12-6.93-6.89-8.84-8-3.18-18.71-1.77-23.5 2.93a6.4 6.4 0 0 0-2.2 5.55 6.94 6.94 0 0 1 2.2-4c4.79-4.7 15.55-6.11 23.5-2.93 4.11 1.53 6.57 4.37 6.89 7.29Z" style="fill:url(#radial-gradient-4)"/></g><path d="M208.17 141.25c-1.93 0-3.42-6.43-3.33-14.32s1.73-14.27 3.66-14.24 3.42 6.43 3.33 14.32-1.73 14.26-3.66 14.24Z" style="fill:url(#radial-gradient-5);mix-blend-mode:color-dodge"/><path d="M132.92 119.25c-1.93 0-3.42-6.43-3.33-14.32s1.73-14.27 3.66-14.24 3.42 6.43 3.33 14.32-1.73 14.26-3.66 14.24Z" style="fill:url(#radial-gradient-6);mix-blend-mode:color-dodge"/><path d="M85.29 177.58c-6.72-3.88-6.46-10.25.8-13.89 5.84-2.92 15.73-2.88 21.57.09 3.31 1.68 5.16 3.92 5.55 6.23.19 1.09 2.51 1.56 3.84.79l26.35-15.22-26.81-15.48c-1.74-1-.66-2.73 1.78-2.82a21.42 21.42 0 0 0 10.68-3c5.39-3.47 5.23-8.87-.36-12.28-6.13-3.74-16.33-3.82-22.56-.23-2.79 1.62-4.3 3.69-4.53 5.81-.16 1.41-3.15 2-4.89 1L69.9 113.15 2.21 152.23c-3 1.7-2.94 4.48 0 6.2l68.12 39.33 26.38-15.23c1.32-.77.52-2.1-1.34-2.2a23.07 23.07 0 0 1-10.08-2.75Z" style="fill:url(#linear-gradient-27)"/><path d="M129.05 134.29a21.42 21.42 0 0 1-10.68 3c-2.44.09-3.52 1.82-1.78 2.82l16.31 9.42v-20.34a7.85 7.85 0 0 1-3.85 5.1Z" style="fill:url(#linear-gradient-28)"/><path d="M0 155.24Z" style="fill:url(#linear-gradient-29)"/><path d="M117.05 170.8c-1.33.77-3.65.3-3.84-.79-.39-2.31-2.24-4.55-5.55-6.23-5.84-3-15.73-3-21.57-.09-7.26 3.64-7.52 10-.8 13.89a23.07 23.07 0 0 0 10.11 2.75c1.14.07 1.88.59 2 1.16V184a24.61 24.61 0 0 1 10.28 2.24c3.31 1.68 5.16 3.92 5.55 6.23.19 1.09 2.51 1.56 3.84.79l25.24-14.57 1.11-.24v-22.87Z" style="fill:url(#linear-gradient-30)"/><path d="M2.24 158.43A3.86 3.86 0 0 1 0 155.38v22c-.2 1.26.53 2.56 2.21 3.53l68.12 39.33v-22.5Z" style="fill:url(#linear-gradient-31)"/><path d="M97.38 181.49Z" style="fill:url(#linear-gradient-32)"/><path d="M97.38 181.49Z" style="fill:url(#linear-gradient-33)"/><path d="m96.74 182.52-26.38 15.24v22.5L96.74 205a1.1 1.1 0 0 0 .63-.82v-22.61a1 1 0 0 1-.63.95Z" style="fill:url(#linear-gradient-34)"/><path d="m96.74 182.52-26.38 15.24v22.5L96.74 205a1.1 1.1 0 0 0 .63-.82v-22.61a1 1 0 0 1-.63.95Z" style="fill:url(#linear-gradient-35)"/><g style="opacity:.2"><path d="M97.38 237.49Z" style="fill:url(#linear-gradient-36)"/><path d="M97.38 237.49Z" style="fill:url(#linear-gradient-37)"/></g><g class="cls-29"><path d="m96.58 181.61-26.22 15.15-68.12-39.33a4.44 4.44 0 0 1-2-2.12c-.58 1.43.09 3 2 4.12l68.12 39.33 26.38-15.24c.99-.52.79-1.45-.16-1.91Z" style="fill:url(#radial-gradient-7)"/><path d="M129.05 133.29a21.42 21.42 0 0 1-10.68 3c-2.3.09-3.39 1.63-2.06 2.64a3.7 3.7 0 0 1 2.06-.64 21.42 21.42 0 0 0 10.68-3c3-2 4.32-4.55 3.84-7a7.92 7.92 0 0 1-3.84 5Z" style="fill:url(#radial-gradient-8)"/><path d="M117.05 169.8c-1.33.77-3.65.3-3.84-.79-.39-2.31-2.24-4.55-5.55-6.23-5.84-3-15.73-3-21.57-.09-4.24 2.13-6.07 5.18-5.54 8.13.42-2.28 2.26-4.48 5.54-6.13 5.84-2.92 15.73-2.88 21.57.09 3.31 1.68 5.16 3.92 5.55 6.23.19 1.09 2.51 1.56 3.84.79l26.35-15.22-1.73-1Z" style="fill:url(#radial-gradient-9)"/></g><path d="M96.3 179.07c-1.55 0-2.74-6.52-2.65-14.53s1.43-14.48 3-14.46 2.74 6.52 2.65 14.53-1.44 14.48-3 14.46Z" style="fill:url(#radial-gradient-10);mix-blend-mode:color-dodge"/><ellipse cx="98.57" cy="163.22" rx="8.84" ry="17.68" transform="rotate(-22.34 98.578 163.216)" style="fill:url(#radial-gradient-11);mix-blend-mode:color-dodge"/><path d="M238.76 131c6.72 3.88 6.46 10.25-.8 13.89-5.84 2.92-15.73 2.88-21.57-.09-3.31-1.68-5.16-3.92-5.56-6.22-.18-1.1-2.5-1.57-3.84-.8L180.65 153l26.81 15.48c1.74 1 .66 2.73-1.78 2.82a21.39 21.39 0 0 0-10.68 3c-5.39 3.47-5.23 8.87.35 12.28 6.14 3.74 16.33 3.83 22.56.23 2.8-1.62 4.31-3.69 4.54-5.81.15-1.41 3.14-2 4.88-1l26.82 15.48 67.69-39.08c3-1.7 2.94-4.48 0-6.2l-68.12-39.33L227.31 126c-1.32.76-.52 2.09 1.34 2.19a23.07 23.07 0 0 1 10.11 2.81Z" style="fill:url(#linear-gradient-38)"/><path d="M238.76 131c6.72 3.88 6.46 10.25-.8 13.89-5.84 2.92-15.73 2.88-21.57-.09-3.31-1.68-5.16-3.92-5.56-6.22-.18-1.1-2.5-1.57-3.84-.8L180.65 153l26.81 15.48c1.74 1 .66 2.73-1.78 2.82a21.39 21.39 0 0 0-10.68 3c-5.39 3.47-5.23 8.87.35 12.28 6.14 3.74 16.33 3.83 22.56.23 2.8-1.62 4.31-3.69 4.54-5.81.15-1.41 3.14-2 4.88-1l26.82 15.48 67.69-39.08c3-1.7 2.94-4.48 0-6.2l-68.12-39.33L227.31 126c-1.32.76-.52 2.09 1.34 2.19a23.07 23.07 0 0 1 10.11 2.81Z" style="fill:url(#linear-gradient-39)"/><path d="M238 144.86c7.26-3.64 7.52-10 .8-13.89a23.07 23.07 0 0 0-10.11-2.75c-1.19-.07-1.94-.63-2-1.23v20a25.08 25.08 0 0 0 11.31-2.13Z" style="fill:url(#linear-gradient-40)"/><path d="M324 175.62v-22.5c0 1.16-.68 2.32-2.2 3.19l-67.65 39.09v22.5l67.69-39.08c1.52-.88 2.25-2.04 2.16-3.2Z" style="fill:url(#linear-gradient-41)"/><path d="M324 175.62v-22.5c0 1.16-.68 2.32-2.2 3.19l-67.65 39.09v22.5l67.69-39.08c1.52-.88 2.25-2.04 2.16-3.2Z" style="fill:url(#linear-gradient-42)"/><path d="M195 174.26a21.39 21.39 0 0 1 10.68-3c2.44-.09 3.52-1.82 1.78-2.82L180.65 153v22.5l10.44 6h.11c-.57-2.58.68-5.23 3.8-7.24Z" style="fill:url(#linear-gradient-43)"/><path d="M227.33 179.92a4.46 4.46 0 0 0-3-.39V202a4.46 4.46 0 0 1 3 .39l26.82 15.48V195.4Z" style="fill:url(#linear-gradient-44)"/><path d="M222.45 181c-.23 2.12-1.74 4.19-4.54 5.81-6.23 3.6-16.42 3.51-22.56-.23a8.43 8.43 0 0 1-4.15-5.08h-.11v20.83c-.2 2.4 1.22 4.85 4.26 6.71 6.14 3.74 16.33 3.83 22.56.23 2.8-1.62 4.31-3.69 4.54-5.81.08-.72.89-1.23 1.89-1.43v-22.5c-1 .2-1.81.71-1.89 1.47Z" style="fill:url(#linear-gradient-45)"/><path d="M222.45 181c-.23 2.12-1.74 4.19-4.54 5.81-6.23 3.6-16.42 3.51-22.56-.23a8.43 8.43 0 0 1-4.15-5.08h-.11v20.83c-.2 2.4 1.22 4.85 4.26 6.71 6.14 3.74 16.33 3.83 22.56.23 2.8-1.62 4.31-3.69 4.54-5.81.08-.72.89-1.23 1.89-1.43v-22.5c-1 .2-1.81.71-1.89 1.47Z" style="fill:url(#linear-gradient-46)"/><g class="cls-29"><path d="M207.73 169.63c.8-.62.83-1.54-.27-2.18L182.38 153l-1.73 1 26.81 15.48Z" style="fill:url(#radial-gradient-12)"/><path d="M228.65 129.22a23.07 23.07 0 0 1 10.11 2.78c2.79 1.62 4.36 3.66 4.74 5.76.51-2.76-1.06-5.63-4.74-7.76a23.07 23.07 0 0 0-10.11-2.75 3.31 3.31 0 0 1-1.19-.28l-.15.09c-1.31.73-.52 2.06 1.34 2.16Z" style="fill:url(#radial-gradient-13)"/></g><path d="M198.43 205.56c-2 0-3.61-7.27-3.51-16.19s1.84-16.13 3.88-16.11 3.6 7.27 3.5 16.19-1.83 16.14-3.87 16.11Z" style="fill:url(#radial-gradient-14);mix-blend-mode:color-dodge"/><path d="M227.33 178.92c-1.74-1-4.73-.37-4.88 1-.23 2.12-1.74 4.19-4.54 5.81-6.23 3.6-16.42 3.51-22.56-.23-2.42-1.48-3.82-3.33-4.19-5.24-.47 2.57.93 5.24 4.19 7.24 6.14 3.74 16.33 3.83 22.56.23 2.8-1.62 4.31-3.69 4.54-5.81.15-1.41 3.14-2 4.88-1L254 196.3v-2Z" style="fill:url(#radial-gradient-15);mix-blend-mode:color-dodge"/><path d="M321.84 157.32c1.92-1.1 2.58-2.66 2-4.08a4.44 4.44 0 0 1-2 2.08l-67.69 39.08-.19-.1v2l.19.1Z" style="fill:url(#radial-gradient-16);mix-blend-mode:color-dodge"/><path d="M202.39 200.55c-5.25 4.53-16.14 5.58-23.76 2.14-6.13-2.76-8-8.37-4.15-12.23 2.2-2.19 5.64-3.66 9.48-4.31 1.82-.31 2.16-1.71.58-2.32l-31.1-12.09-21 18.09c-1.36 1.17-4.51.88-5.15-.49-1-2.21-3.49-4.21-7.21-5.49-7-2.41-16.11-1.31-20.8 2.5-5.14 4.17-3.25 10 4.1 12.82a25.22 25.22 0 0 0 10.78 1.48c2.43-.17 4.1 1.4 2.74 2.58L96 221.31l79.9 31.05c3.49 1.35 8.21.83 10.54-1.18l53.27-45.94-31.14-12.1c-1.56-.6-3.66.1-3.46 1.17.34 2.13-.51 4.34-2.72 6.24Z" style="fill:url(#linear-gradient-47)"/><path d="M186.39 251.18c-2.33 2-7 2.53-10.54 1.18L96 221.31v22.5l79.9 31.05c3.49 1.35 8.21.83 10.54-1.18l53.27-45.94v-22.5Z" style="fill:url(#linear-gradient-48)"/><path d="M114.19 200.65a25.22 25.22 0 0 1-10.78-1.48c-4.17-1.62-6.58-4.19-7-6.87v21.17a6.44 6.44 0 0 0 2.32 5.41l18.15-15.65c1.41-1.18-.26-2.75-2.69-2.58Z" style="fill:url(#linear-gradient-49)"/><path d="M184 186.15c-3.84.65-7.28 2.12-9.48 4.31-3.88 3.86-2 9.47 4.15 12.23a23.35 23.35 0 0 0 6.83 1.83v-19.3a1.83 1.83 0 0 1-1.5.93Z" style="fill:url(#linear-gradient-50)"/><g class="cls-29"><path d="M205.12 194.88a.73.73 0 0 0-.05.3c.01-.1.04-.18.05-.3Z" style="fill:url(#radial-gradient-17)"/><path d="M174.48 189.46a6.2 6.2 0 0 0-1.92 5.56 6.55 6.55 0 0 1 1.92-3.56c2.2-2.19 5.64-3.66 9.48-4.31 1.74-.3 2.11-1.59.75-2.24a3 3 0 0 1-.75.24c-3.84.65-7.28 2.12-9.48 4.31Z" style="fill:url(#radial-gradient-18)"/><path d="M103.41 200.17a25.22 25.22 0 0 0 10.78 1.48 3.92 3.92 0 0 1 2.64.66l.1-.08c1.36-1.18-.31-2.75-2.74-2.58a25.22 25.22 0 0 1-10.78-1.48c-4-1.57-6.42-4-6.9-6.61-.64 3.27 1.83 6.64 6.9 8.61Z" style="fill:url(#radial-gradient-19)"/><path d="M186.39 250.18c-2.33 2-7 2.53-10.54 1.18l-78.3-30.43-1.55 1.38 79.9 31.05c3.49 1.35 8.21.83 10.54-1.18l53.27-45.94-1.6-.62Z" style="fill:url(#radial-gradient-20)"/></g><path d="M180.84 277.24c-1.27 0-2.22-7.41-2.11-16.52s1.21-16.48 2.48-16.47 2.21 7.41 2.11 16.52-1.22 16.48-2.48 16.47Z" style="fill:url(#radial-gradient-21);mix-blend-mode:color-dodge"/><path d="M102.28 212.4c-1.27 0-2.24-5.28-2.17-11.77s1.16-11.74 2.43-11.72 2.24 5.28 2.17 11.77-1.17 11.74-2.43 11.72Z" style="fill:url(#radial-gradient-22);mix-blend-mode:color-dodge"/><path d="M190.83 250.2c3 7.4.82 15.33-5 17.71s-12.94-1.7-16-9.11-.82-15.33 5-17.7 12.96 1.69 16 9.1Z" style="fill:url(#radial-gradient-23);mix-blend-mode:color-dodge"/><g class="cls-78"><path d="M259.89 76.73a10.94 10.94 0 0 1-2.88-.41.52.52 0 0 1-.33-.3l-1.9-4.66a12.16 12.16 0 0 1-1.49-.73 15.1 15.1 0 0 1-1.29-.83l-1.67 2.2a.48.48 0 0 1-.35.19.53.53 0 0 1-.38-.12 31 31 0 0 1-3.6-3.81.49.49 0 0 1-.09-.42l.83-3.51a25.35 25.35 0 0 1-2.11-3.64l-3.48-1a.53.53 0 0 1-.32-.3 29.61 29.61 0 0 1-1.49-5 .47.47 0 0 1 .09-.39.5.5 0 0 1 .34-.2l2.74-.35c-.05-.56-.08-1.05-.08-1.51a13.68 13.68 0 0 1 .11-1.64l-3.1-4a.5.5 0 0 1-.09-.44 10.23 10.23 0 0 1 1.54-3.37.49.49 0 0 1 .35-.2.48.48 0 0 1 .38.11l3.38 2.86a5.85 5.85 0 0 1 1.73-1l-.8-4.3a.5.5 0 0 1 .45-.59 10.49 10.49 0 0 1 3.71.37.49.49 0 0 1 .33.3l1.9 4.66a11.47 11.47 0 0 1 1.49.73 13.59 13.59 0 0 1 1.27.83l1.69-2.18a.48.48 0 0 1 .35-.19.54.54 0 0 1 .38.12 31 31 0 0 1 3.59 3.79.49.49 0 0 1 .09.42l-.83 3.5a26 26 0 0 1 2.11 3.65l3.48 1a.51.51 0 0 1 .32.29 30 30 0 0 1 1.49 5 .55.55 0 0 1-.09.39.5.5 0 0 1-.34.2l-2.74.35c.05.55.08 1.05.08 1.5a13.71 13.71 0 0 1-.11 1.65l3.1 4a.5.5 0 0 1 .09.44 10.32 10.32 0 0 1-1.54 3.37.55.55 0 0 1-.35.2.47.47 0 0 1-.38-.11l-3.35-2.86a5.77 5.77 0 0 1-1.74 1l.81 4.3a.5.5 0 0 1-.1.39.49.49 0 0 1-.35.2c-.29.03-.57.05-.85.05Zm-2.38-1.32a9.4 9.4 0 0 0 2.57.31l-.78-4.18a.49.49 0 0 1 .36-.57 4.57 4.57 0 0 0 2.07-1.18.51.51 0 0 1 .68 0l3.26 2.78a9.28 9.28 0 0 0 1-2.35l-3.08-4a.46.46 0 0 1-.1-.38 11.41 11.41 0 0 0 .13-1.71 15 15 0 0 0-.13-1.87.49.49 0 0 1 .43-.56l2.69-.34a27.24 27.24 0 0 0-1.24-4.06l-3.45-1a.5.5 0 0 1-.31-.26 24.51 24.51 0 0 0-2.25-3.88.5.5 0 0 1-.07-.41l.82-3.48a29 29 0 0 0-2.92-3.11l-1.65 2.14a.5.5 0 0 1-.7.09 16.76 16.76 0 0 0-1.57-1.06 11.93 11.93 0 0 0-1.56-.74.55.55 0 0 1-.28-.28l-1.88-4.63a10.19 10.19 0 0 0-2.57-.31l.78 4.19a.49.49 0 0 1-.37.57 4.67 4.67 0 0 0-2.07 1.18.49.49 0 0 1-.67 0l-3.26-2.78a9.28 9.28 0 0 0-1 2.35l3.08 3.95a.49.49 0 0 1 .1.37 11.82 11.82 0 0 0-.13 1.71 15.23 15.23 0 0 0 .13 1.88.49.49 0 0 1-.43.56l-2.7.34a28.54 28.54 0 0 0 1.25 4.06l3.45 1a.5.5 0 0 1 .31.26 24.91 24.91 0 0 0 2.24 3.88.47.47 0 0 1 .08.41l-.77 3.53a28 28 0 0 0 2.92 3.11l1.65-2.14a.5.5 0 0 1 .7-.09 17.43 17.43 0 0 0 1.57 1.06 11.93 11.93 0 0 0 1.56.74.5.5 0 0 1 .27.28Z" style="fill:url(#radial-gradient-24);mix-blend-mode:screen"/><path d="M255.45 64a4.31 4.31 0 0 1-2.16-.66 9.92 9.92 0 0 1-4.51-7.77c0-2.14 1.12-3.52 2.85-3.52a4.31 4.31 0 0 1 2.16.66 10 10 0 0 1 4.51 7.77c0 2.15-1.12 3.52-2.85 3.52Zm-3.82-11c-1.16 0-1.85.94-1.85 2.52a8.86 8.86 0 0 0 4 6.91 3.42 3.42 0 0 0 1.66.52c1.16 0 1.85-.94 1.85-2.52a8.86 8.86 0 0 0-4-6.91 3.42 3.42 0 0 0-1.66-.46Z" style="fill:url(#radial-gradient-25);mix-blend-mode:screen"/></g><g class="cls-78"><path d="M214.09 36.16a2 2 0 0 1-1-.31l-4.2-2.42a4.34 4.34 0 0 1-2-3.43v-2.16a10.44 10.44 0 0 0-1.74-5.27C202.9 19 201.8 15 202.21 11.81s2.39-5.17 5.18-5.17a7.45 7.45 0 0 1 3 .69c5.27 2.35 9.9 9.73 9.9 15.79 0 3-1.16 5.25-3.18 6.14a3 3 0 0 0-1.57 3v2.16a1.91 1.91 0 0 1-.38 1.22 1.35 1.35 0 0 1-1.07.52Zm-6.7-28.52c-2.28 0-3.85 1.6-4.19 4.3-.38 3 .66 6.75 2.78 10.1a11.3 11.3 0 0 1 1.9 5.8V30a3.32 3.32 0 0 0 1.48 2.56l4.2 2.43a1.16 1.16 0 0 0 .53.17.34.34 0 0 0 .3-.14.94.94 0 0 0 .16-.59v-2.16a4 4 0 0 1 2.16-3.92c1.64-.73 2.59-2.63 2.59-5.23 0-5.72-4.35-12.66-9.31-14.87a6.33 6.33 0 0 0-2.6-.61Z" style="fill:url(#radial-gradient-26);mix-blend-mode:screen"/><path d="M212.66 39.69a1.53 1.53 0 0 1-.77-.22L210 38.4a3.69 3.69 0 0 1-1.57-3V33l5.57 3.2V38c0 1.18-.69 1.69-1.34 1.69Zm-3.2-4.93v.67a2.71 2.71 0 0 0 1.07 2.1l1.86 1.07a.51.51 0 0 0 .27.09c.21 0 .3-.34.3-.66v-1.25Z" style="fill:url(#radial-gradient-27);mix-blend-mode:screen"/><path d="M211.83 32.17h-1V23.8h-.05L207 17.33l8 4.67-3.21 1.83Zm-2.08-12.1 1.64 2.83L213 22Z" style="fill:url(#radial-gradient-28);mix-blend-mode:screen"/></g><g class="cls-78"><path d="M165.46 53.34a9.6 9.6 0 0 1-4.73-1.44c-5.64-3.26-10.24-11.18-10.24-17.66 0-4.6 2.36-7.57 6-7.57a9.47 9.47 0 0 1 4.73 1.44c5.65 3.26 10.24 11.18 10.24 17.66.01 4.6-2.35 7.57-6 7.57Zm-9-25.67c-3.09 0-5 2.52-5 6.57 0 6.16 4.37 13.69 9.74 16.79a8.64 8.64 0 0 0 4.23 1.31c3.09 0 5-2.52 5-6.57 0-6.16-4.37-13.69-9.74-16.8a8.72 8.72 0 0 0-4.19-1.3Z" style="fill:url(#radial-gradient-29);mix-blend-mode:screen"/><path d="m167.46 43.46-6.68-2.85a.51.51 0 0 1-.3-.46v-8.31h1v8l6.38 2.72Z" style="fill:url(#radial-gradient-30);mix-blend-mode:screen"/></g><path d="M296.63 116.32a8.05 8.05 0 0 1-5.31-2.71.48.48 0 0 1-.12-.36.45.45 0 0 1 .21-.31l3.22-1.83-3.21-5.53-3.22 1.83a.4.4 0 0 1-.37 0 .4.4 0 0 1-.24-.28c-.92-3.32-.28-6.16 1.61-7.24s4.55-.23 6.89 2l6.24-3.56c-.79-3.17-.13-5.87 1.7-6.92s4.73-.16 7.12 2.26a.38.38 0 0 1 .12.35.41.41 0 0 1-.21.31l-3.21 1.83 3.21 5.53 3.21-1.83a.44.44 0 0 1 .37 0 .41.41 0 0 1 .25.28c.92 3.32.28 6.16-1.62 7.25s-4.54.22-6.88-2l-6.25 3.56c.79 3.18.14 5.87-1.7 6.92a3.58 3.58 0 0 1-1.81.45Zm-4.3-2.92a6.82 6.82 0 0 0 4.3 2.07 2.69 2.69 0 0 0 1.39-.35c1.55-.88 2-3.34 1.22-6.28a.43.43 0 0 1 .2-.48l6.8-3.87a.42.42 0 0 1 .52.07c2.1 2.12 4.55 3 6.09 2.11s2-3 1.36-5.75l-3.1 1.77a.44.44 0 0 1-.58-.16l-3.63-6.26a.45.45 0 0 1 0-.32.41.41 0 0 1 .2-.26l3.09-1.76c-2-1.85-4.25-2.55-5.7-1.73s-2 3.35-1.22 6.28a.42.42 0 0 1-.2.48l-6.8 3.88a.44.44 0 0 1-.51-.07c-2.11-2.13-4.55-3-6.1-2.12s-2 3.06-1.35 5.75l3.1-1.76a.41.41 0 0 1 .57.15l3.63 6.26a.42.42 0 0 1 0 .33.37.37 0 0 1-.19.25Z" style="fill:url(#radial-gradient-31);mix-blend-mode:screen" class="cls-78"/><g class="cls-78"><path d="M207.21 182.58a.51.51 0 0 1-.5-.5v-2a.5.5 0 0 1 .5-.5.5.5 0 0 1 .5.5v2a.5.5 0 0 1-.5.5Zm0-4a.51.51 0 0 1-.5-.5v-2a.5.5 0 0 1 .5-.5.5.5 0 0 1 .5.5v2a.5.5 0 0 1-.5.5Zm0-4a.51.51 0 0 1-.5-.5v-2a.5.5 0 0 1 .5-.5.5.5 0 0 1 .5.5v2a.5.5 0 0 1-.5.5Zm0-4a.51.51 0 0 1-.5-.5v-2a.5.5 0 0 1 .5-.5.5.5 0 0 1 .5.5v2a.5.5 0 0 1-.5.5Zm0-4a.51.51 0 0 1-.5-.5v-2a.5.5 0 0 1 .5-.5.5.5 0 0 1 .5.5v2a.5.5 0 0 1-.5.5Zm0-4a.51.51 0 0 1-.5-.5v-2a.5.5 0 0 1 .5-.5.5.5 0 0 1 .5.5v2a.5.5 0 0 1-.5.5Zm0-4a.51.51 0 0 1-.5-.5v-2a.5.5 0 0 1 .5-.5.5.5 0 0 1 .5.5v2a.5.5 0 0 1-.5.5Zm0-4a.51.51 0 0 1-.5-.5v-2a.5.5 0 0 1 .5-.5.5.5 0 0 1 .5.5v2a.5.5 0 0 1-.5.5Zm0-4a.51.51 0 0 1-.5-.5v-2a.5.5 0 0 1 .5-.5.5.5 0 0 1 .5.5v2a.5.5 0 0 1-.5.5Zm0-4a.51.51 0 0 1-.5-.5v-2a.5.5 0 0 1 .5-.5.5.5 0 0 1 .5.5v2a.5.5 0 0 1-.5.5Zm0-4a.51.51 0 0 1-.5-.5v-2a.5.5 0 0 1 .5-.5.5.5 0 0 1 .5.5v2a.5.5 0 0 1-.5.5Zm0-4a.51.51 0 0 1-.5-.5v-2a.5.5 0 0 1 .5-.5.5.5 0 0 1 .5.5v2a.5.5 0 0 1-.5.5Zm0-4a.51.51 0 0 1-.5-.5v-2a.5.5 0 0 1 .5-.5.5.5 0 0 1 .5.5v2a.5.5 0 0 1-.5.5Zm1.21-3.32a.5.5 0 0 1-.42-.26.49.49 0 0 1 .17-.69l1.71-1a.5.5 0 1 1 .51.85l-1.71 1a.48.48 0 0 1-.26.1Zm3.43-2.07a.51.51 0 0 1-.43-.24.5.5 0 0 1 .17-.69l1.71-1a.5.5 0 0 1 .52.86l-1.71 1a.63.63 0 0 1-.26.07Zm3.42-2.07a.5.5 0 0 1-.26-.93l1.71-1a.5.5 0 1 1 .52.86l-1.71 1a.5.5 0 0 1-.26.07Zm3.42-2.08a.5.5 0 0 1-.26-.92l1.71-1a.5.5 0 1 1 .52.86L219 125a.48.48 0 0 1-.31 0Zm3.42-2.07a.5.5 0 0 1-.26-.92l1.71-1a.5.5 0 0 1 .69.17.49.49 0 0 1-.17.68l-1.71 1a.48.48 0 0 1-.26.1Zm3.42-2.07a.47.47 0 0 1-.42-.24.5.5 0 0 1 .16-.69l1.72-1a.49.49 0 0 1 .68.17.48.48 0 0 1-.17.68l-1.71 1a.48.48 0 0 1-.26.08Zm3.43-2.07a.51.51 0 0 1-.43-.24.5.5 0 0 1 .17-.69l1.71-1a.5.5 0 0 1 .52.85l-1.72 1a.47.47 0 0 1-.21.08Zm3.42-2.07a.51.51 0 0 1-.43-.24.5.5 0 0 1 .17-.69l1.71-1a.5.5 0 1 1 .52.86l-1.71 1a.59.59 0 0 1-.26.07Zm3.42-2.07a.52.52 0 0 1-.43-.24.5.5 0 0 1 .17-.69l1.71-1a.51.51 0 0 1 .69.17.5.5 0 0 1-.17.69l-1.71 1a.5.5 0 0 1-.26.07Zm3.42-2.07a.51.51 0 0 1-.43-.25.5.5 0 0 1 .17-.68l1.71-1a.5.5 0 1 1 .52.86l-1.71 1a.5.5 0 0 1-.26.07Zm3.42-2.08a.5.5 0 0 1-.26-.92l1.71-1a.5.5 0 0 1 .52.86l-1.71 1a.48.48 0 0 1-.26.06Zm3.42-2.07a.48.48 0 0 1-.42-.24.5.5 0 0 1 .17-.69l1.71-1a.49.49 0 0 1 .68.17.48.48 0 0 1-.17.68l-1.71 1a.48.48 0 0 1-.26.08Zm3.43-2.07a.5.5 0 0 1-.26-.93l1.71-1a.5.5 0 0 1 .52.85l-1.72 1a.47.47 0 0 1-.25.08Zm3.42-2.07a.51.51 0 0 1-.43-.24.5.5 0 0 1 .17-.69l.31-.19v-1.07a.51.51 0 0 1 .5-.5.5.5 0 0 1 .5.5v1.35a.5.5 0 0 1-.24.43l-.55.34a.59.59 0 0 1-.26.07Zm.55-3.69a.5.5 0 0 1-.5-.5v-2a.51.51 0 0 1 .5-.5.5.5 0 0 1 .5.5v2a.5.5 0 0 1-.5.5Zm0-4a.5.5 0 0 1-.5-.5v-2a.51.51 0 0 1 .5-.5.5.5 0 0 1 .5.5v2a.5.5 0 0 1-.5.5Zm0-4a.5.5 0 0 1-.5-.5v-2a.51.51 0 0 1 .5-.5.5.5 0 0 1 .5.5v2a.5.5 0 0 1-.5.5Zm0-4a.5.5 0 0 1-.5-.5v-2a.51.51 0 0 1 .5-.5.5.5 0 0 1 .5.5v2a.5.5 0 0 1-.5.5Zm0-4a.5.5 0 0 1-.5-.5v-2a.51.51 0 0 1 .5-.5.5.5 0 0 1 .5.5v2a.5.5 0 0 1-.5.5Zm0-4a.5.5 0 0 1-.5-.5v-2a.51.51 0 0 1 .5-.5.5.5 0 0 1 .5.5v2a.5.5 0 0 1-.5.5Zm0-4a.5.5 0 0 1-.5-.5v-2a.51.51 0 0 1 .5-.5.5.5 0 0 1 .5.5v2a.5.5 0 0 1-.5.5Z" style="fill:url(#radial-gradient-32);mix-blend-mode:screen"/><path d="M210.3 115.33a.5.5 0 0 1-.5-.5v-.5a.5.5 0 0 1 .5-.5.5.5 0 0 1 .5.5v.5a.51.51 0 0 1-.5.5Zm0-2.5a.5.5 0 0 1-.5-.5v-2a.5.5 0 0 1 .5-.5.5.5 0 0 1 .5.5v2a.51.51 0 0 1-.5.5Zm0-4a.5.5 0 0 1-.5-.5v-2a.5.5 0 0 1 .5-.5.5.5 0 0 1 .5.5v2a.51.51 0 0 1-.5.5Zm0-4a.5.5 0 0 1-.5-.5v-2a.5.5 0 0 1 .5-.5.5.5 0 0 1 .5.5v2a.51.51 0 0 1-.5.5Zm0-4a.5.5 0 0 1-.5-.5v-2a.5.5 0 0 1 .5-.5.5.5 0 0 1 .5.5v2a.51.51 0 0 1-.5.5Zm0-4a.5.5 0 0 1-.5-.5v-2a.5.5 0 0 1 .5-.5.5.5 0 0 1 .5.5v2a.51.51 0 0 1-.5.5Zm0-4a.5.5 0 0 1-.5-.5v-2a.5.5 0 0 1 .5-.5.5.5 0 0 1 .5.5v2a.51.51 0 0 1-.5.5Zm0-4a.5.5 0 0 1-.5-.5v-2a.5.5 0 0 1 .5-.5.5.5 0 0 1 .5.5v2a.51.51 0 0 1-.5.5Zm0-4a.5.5 0 0 1-.5-.5v-2a.5.5 0 0 1 .5-.5.5.5 0 0 1 .5.5v2a.51.51 0 0 1-.5.5Zm0-4a.5.5 0 0 1-.5-.5v-2a.5.5 0 0 1 .5-.5.5.5 0 0 1 .5.5v2a.51.51 0 0 1-.5.5Zm0-4a.5.5 0 0 1-.5-.5v-2a.5.5 0 0 1 .5-.5.5.5 0 0 1 .5.5v2a.51.51 0 0 1-.5.5Zm0-4a.5.5 0 0 1-.5-.5v-2a.5.5 0 0 1 .5-.5.5.5 0 0 1 .5.5v2a.51.51 0 0 1-.5.5Zm0-4a.5.5 0 0 1-.5-.5v-2a.5.5 0 0 1 .5-.5.5.5 0 0 1 .5.5v2a.51.51 0 0 1-.5.5Zm0-4a.5.5 0 0 1-.5-.5v-2a.5.5 0 0 1 .5-.5.5.5 0 0 1 .5.5v2a.51.51 0 0 1-.5.5Zm0-4a.5.5 0 0 1-.5-.5v-2a.5.5 0 0 1 .5-.5.5.5 0 0 1 .5.5v2a.51.51 0 0 1-.5.5Zm0-4a.5.5 0 0 1-.5-.5v-2a.5.5 0 0 1 .5-.5.5.5 0 0 1 .5.5v2a.51.51 0 0 1-.5.5Zm0-4a.5.5 0 0 1-.5-.5v-2a.5.5 0 0 1 .5-.5.5.5 0 0 1 .5.5v2a.51.51 0 0 1-.5.5Zm0-4a.5.5 0 0 1-.5-.5v-2a.5.5 0 0 1 .5-.5.5.5 0 0 1 .5.5v2a.51.51 0 0 1-.5.5Zm0-4a.5.5 0 0 1-.5-.5v-2a.5.5 0 0 1 .5-.5.5.5 0 0 1 .5.5v2a.51.51 0 0 1-.5.5Z" style="fill:url(#radial-gradient-33);mix-blend-mode:screen"/><path d="M117 127a.5.5 0 0 1-.5-.5v-2a.51.51 0 0 1 .5-.5.5.5 0 0 1 .5.5v2a.5.5 0 0 1-.5.5Zm0-4a.5.5 0 0 1-.5-.5v-2a.51.51 0 0 1 .5-.5.5.5 0 0 1 .5.5v2a.5.5 0 0 1-.5.5Zm0-4a.5.5 0 0 1-.5-.5v-2a.51.51 0 0 1 .5-.5.5.5 0 0 1 .5.5v2a.5.5 0 0 1-.5.5Zm0-4a.5.5 0 0 1-.5-.5v-2a.51.51 0 0 1 .5-.5.5.5 0 0 1 .5.5v2a.5.5 0 0 1-.5.5Zm0-4a.5.5 0 0 1-.5-.5v-2a.51.51 0 0 1 .5-.5.5.5 0 0 1 .5.5v2a.5.5 0 0 1-.5.5Zm0-4a.5.5 0 0 1-.5-.5v-2a.51.51 0 0 1 .5-.5.5.5 0 0 1 .5.5v2a.5.5 0 0 1-.5.5Zm0-4a.5.5 0 0 1-.5-.5v-2a.51.51 0 0 1 .5-.5.5.5 0 0 1 .5.5v2a.5.5 0 0 1-.5.5Zm0-4a.5.5 0 0 1-.5-.5v-2a.51.51 0 0 1 .5-.5.5.5 0 0 1 .5.5v2a.5.5 0 0 1-.5.5Zm0-4a.5.5 0 0 1-.5-.5v-2a.51.51 0 0 1 .5-.5.5.5 0 0 1 .5.5v2a.5.5 0 0 1-.5.5Zm0-4a.5.5 0 0 1-.5-.5v-2a.51.51 0 0 1 .5-.5.5.5 0 0 1 .5.5v2a.5.5 0 0 1-.5.5Zm0-4a.5.5 0 0 1-.5-.5v-2a.51.51 0 0 1 .5-.5.5.5 0 0 1 .5.5v2a.5.5 0 0 1-.5.5Zm0-4a.5.5 0 0 1-.5-.5v-2a.51.51 0 0 1 .5-.5.5.5 0 0 1 .5.5v2a.5.5 0 0 1-.5.5Zm0-4a.5.5 0 0 1-.5-.5v-2a.51.51 0 0 1 .5-.5.5.5 0 0 1 .5.5v2a.5.5 0 0 1-.5.5Zm0-4a.5.5 0 0 1-.5-.5v-2a.51.51 0 0 1 .5-.5.5.5 0 0 1 .5.5v2a.5.5 0 0 1-.5.5Zm0-4a.5.5 0 0 1-.5-.5v-2a.51.51 0 0 1 .5-.5.5.5 0 0 1 .5.5v2a.5.5 0 0 1-.5.5Zm0-4a.5.5 0 0 1-.5-.5v-2a.51.51 0 0 1 .5-.5.5.5 0 0 1 .5.5v2a.5.5 0 0 1-.5.5Zm0-4a.5.5 0 0 1-.5-.5v-2a.51.51 0 0 1 .5-.5.5.5 0 0 1 .5.5v2a.5.5 0 0 1-.5.5Zm0-4a.5.5 0 0 1-.5-.5v-2a.51.51 0 0 1 .5-.5.5.5 0 0 1 .5.5v2a.5.5 0 0 1-.5.5Zm0-4a.5.5 0 0 1-.5-.5v-2a.51.51 0 0 1 .5-.5.5.5 0 0 1 .5.5v2a.5.5 0 0 1-.5.5Zm0-4a.5.5 0 0 1-.5-.5v-2a.51.51 0 0 1 .5-.5.5.5 0 0 1 .5.5v2a.5.5 0 0 1-.5.5Zm0-4a.5.5 0 0 1-.5-.5v-2a.51.51 0 0 1 .5-.5.5.5 0 0 1 .5.5v2a.5.5 0 0 1-.5.5Zm0-4a.5.5 0 0 1-.5-.5v-2a.51.51 0 0 1 .5-.5.5.5 0 0 1 .5.5v2a.5.5 0 0 1-.5.5Z" style="fill:url(#radial-gradient-34);mix-blend-mode:screen"/><path d="M111 190.66a.5.5 0 0 1-.5-.5v-2a.5.5 0 0 1 .5-.5.5.5 0 0 1 .5.5v2a.5.5 0 0 1-.5.5Zm0-4a.5.5 0 0 1-.5-.5v-2a.5.5 0 0 1 .5-.5.5.5 0 0 1 .5.5v2a.5.5 0 0 1-.5.5Zm0-4a.5.5 0 0 1-.5-.5v-2a.5.5 0 0 1 .5-.5.5.5 0 0 1 .5.5v2a.5.5 0 0 1-.5.5Zm0-4a.5.5 0 0 1-.5-.5v-2a.5.5 0 0 1 .5-.5.5.5 0 0 1 .5.5v2a.5.5 0 0 1-.5.5Zm0-4a.5.5 0 0 1-.5-.5v-2a.5.5 0 0 1 .5-.5.5.5 0 0 1 .5.5v2a.5.5 0 0 1-.5.5Zm0-4a.5.5 0 0 1-.5-.5v-2a.5.5 0 0 1 .5-.5.5.5 0 0 1 .5.5v2a.5.5 0 0 1-.5.5Zm0-4a.5.5 0 0 1-.5-.5v-2a.5.5 0 0 1 .5-.5.5.5 0 0 1 .5.5v2a.5.5 0 0 1-.5.5Zm0-4a.5.5 0 0 1-.5-.5v-2a.5.5 0 0 1 .5-.5.5.5 0 0 1 .5.5v2a.5.5 0 0 1-.5.5Zm0-4a.5.5 0 0 1-.5-.5v-2a.5.5 0 0 1 .5-.5.5.5 0 0 1 .5.5v2a.5.5 0 0 1-.5.5Zm0-4a.5.5 0 0 1-.5-.5v-2a.5.5 0 0 1 .5-.5.5.5 0 0 1 .5.5v2a.5.5 0 0 1-.5.5Zm0-4a.5.5 0 0 1-.5-.5v-2a.5.5 0 0 1 .5-.5.5.5 0 0 1 .5.5v2a.5.5 0 0 1-.5.5Zm0-4a.5.5 0 0 1-.5-.5v-2a.5.5 0 0 1 .5-.5.5.5 0 0 1 .5.5v2a.5.5 0 0 1-.5.5Zm-1.38-3.19a.55.55 0 0 1-.24-.07l-1.74-1a.5.5 0 0 1-.19-.68.49.49 0 0 1 .68-.19l1.74 1a.5.5 0 0 1 .19.68.51.51 0 0 1-.48.26Zm-3.48-2a.5.5 0 0 1-.24-.06l-1.75-1a.5.5 0 0 1 .49-.87l1.75 1a.52.52 0 0 1 .19.69.52.52 0 0 1-.48.27Zm-3.48-2a.45.45 0 0 1-.25-.07l-1.74-1a.5.5 0 1 1 .49-.87l1.74 1a.5.5 0 0 1 .19.68.51.51 0 0 1-.47.33Zm-3.49-2a.5.5 0 0 1-.24-.06l-1.75-1a.51.51 0 0 1-.19-.69.51.51 0 0 1 .68-.19l1.75 1a.5.5 0 0 1-.25.93Zm-3.48-2a.45.45 0 0 1-.25-.07l-1.74-1a.5.5 0 1 1 .49-.87l1.74 1a.5.5 0 0 1 .19.68.49.49 0 0 1-.47.4Zm-3.49-2a.5.5 0 0 1-.24-.06l-1.74-1a.5.5 0 0 1-.2-.68.51.51 0 0 1 .69-.19l1.74 1a.5.5 0 0 1-.25.93Zm-3.48-2a.45.45 0 0 1-.25-.07l-1.74-1a.5.5 0 1 1 .49-.87l1.74 1a.5.5 0 0 1 .19.68.49.49 0 0 1-.47.47Zm-3.49-2a.53.53 0 0 1-.24-.06l-1.74-1a.5.5 0 1 1 .49-.87l1.74 1a.49.49 0 0 1 .19.68.5.5 0 0 1-.48.49Zm-3.48-2a.54.54 0 0 1-.25-.06l-1.74-1a.5.5 0 1 1 .49-.87l1.74 1a.51.51 0 0 1 .19.69.5.5 0 0 1-.47.52Zm-3.49-2a.55.55 0 0 1-.24-.07l-1.74-1a.5.5 0 1 1 .49-.87l1.74 1a.5.5 0 0 1 .19.68.51.51 0 0 1-.48.58Zm-3.48-2a.57.57 0 0 1-.25-.06l-1.74-1a.5.5 0 1 1 .49-.87l1.74 1a.5.5 0 0 1 .2.68.52.52 0 0 1-.48.6Zm-3.48-2a.45.45 0 0 1-.25-.07l-1.74-1a.5.5 0 1 1 .49-.87l1.74 1a.5.5 0 0 1 .19.68.51.51 0 0 1-.47.65Zm-3.49-2a.5.5 0 0 1-.24-.06l-1.75-1a.51.51 0 0 1-.19-.68.5.5 0 0 1 .68-.2L68 119a.5.5 0 0 1 .19.68.52.52 0 0 1-.42.21Zm-3.48-2a.45.45 0 0 1-.25-.07l-1.74-1a.5.5 0 1 1 .49-.87l1.74 1a.5.5 0 0 1 .19.68.49.49 0 0 1-.47.72Zm-3.49-2a.5.5 0 0 1-.24-.06l-1.74-1a.5.5 0 1 1 .49-.87l1.74 1a.5.5 0 0 1-.25.93Zm-3.48-2a.45.45 0 0 1-.25-.07l-1.74-1a.49.49 0 0 1-.19-.68.51.51 0 0 1 .68-.19l1.74 1a.5.5 0 0 1 .19.68.49.49 0 0 1-.47.79Zm-3.49-2a.55.55 0 0 1-.24-.07l-.37-.21a.49.49 0 0 1-.26-.43v-1.58a.5.5 0 0 1 .5-.5.5.5 0 0 1 .5.5V111l.12.07a.5.5 0 0 1-.25.94Zm-.37-3.79a.5.5 0 0 1-.5-.5v-2a.5.5 0 0 1 .5-.5.5.5 0 0 1 .5.5v2a.5.5 0 0 1-.54 1.07Zm0-4a.5.5 0 0 1-.5-.5v-2a.5.5 0 0 1 .5-.5.5.5 0 0 1 .5.5v2a.5.5 0 0 1-.54 1.07Zm0-4a.5.5 0 0 1-.5-.5v-2a.5.5 0 0 1 .5-.5.5.5 0 0 1 .5.5v2a.5.5 0 0 1-.54 1.07Zm0-4a.5.5 0 0 1-.5-.5v-2a.5.5 0 0 1 .5-.5.5.5 0 0 1 .5.5v2a.5.5 0 0 1-.54 1.07Zm0-4a.5.5 0 0 1-.5-.5v-2a.5.5 0 0 1 .5-.5.5.5 0 0 1 .5.5v2a.5.5 0 0 1-.54 1.07Zm0-4a.5.5 0 0 1-.5-.5v-.69a.51.51 0 0 1 .5-.5.5.5 0 0 1 .5.5v1.26a.5.5 0 0 1-.54.5Z" style="fill:url(#radial-gradient-35);mix-blend-mode:screen"/><path d="M296.59 129.29a.45.45 0 0 1-.25-.07l-1.73-1a.49.49 0 0 1-.18-.68.51.51 0 0 1 .69-.18l1.72 1a.51.51 0 0 1 .18.69.49.49 0 0 1-.43.24Zm.62-.91a.5.5 0 0 1-.5-.5v-2a.51.51 0 0 1 .5-.5.5.5 0 0 1 .5.5v2a.5.5 0 0 1-.5.5Zm-4.07-1.11a.45.45 0 0 1-.25-.07l-1.73-1a.5.5 0 1 1 .51-.86l1.72 1a.5.5 0 0 1-.25.93Zm-3.45-2a.55.55 0 0 1-.25-.07l-1.73-1a.51.51 0 0 1-.18-.69.51.51 0 0 1 .69-.18l1.72 1a.51.51 0 0 1 .18.69.5.5 0 0 1-.43.23Zm7.52-.87a.5.5 0 0 1-.5-.5v-2a.51.51 0 0 1 .5-.5.5.5 0 0 1 .5.5v2a.5.5 0 0 1-.5.48Zm-11-1.16a.45.45 0 0 1-.25-.07l-1.73-1a.5.5 0 0 1-.18-.68.51.51 0 0 1 .69-.18l1.72 1a.5.5 0 0 1-.25.93Zm-3.45-2a.45.45 0 0 1-.25-.07l-1.73-1a.51.51 0 0 1-.18-.69.51.51 0 0 1 .69-.18l1.72 1a.5.5 0 0 1-.25.93Zm14.42-.82a.5.5 0 0 1-.5-.5v-1.22a.5.5 0 0 1 .5-.5.5.5 0 0 1 .5.5v1.22a.5.5 0 0 1-.47.46Zm-17.87-1.21a.45.45 0 0 1-.25-.07l-1.73-1a.49.49 0 0 1-.18-.68.51.51 0 0 1 .69-.18l1.72 1a.51.51 0 0 1 .18.69.49.49 0 0 1-.4.2Zm-3.45-2a.45.45 0 0 1-.25-.07l-1.73-1a.5.5 0 1 1 .51-.86l1.72 1a.5.5 0 0 1-.25.93Zm-3.45-2a.55.55 0 0 1-.25-.07l-1.73-1a.49.49 0 0 1-.18-.68.51.51 0 0 1 .69-.18l1.72 1a.51.51 0 0 1 .18.69.5.5 0 0 1-.4.16Zm-3.45-2a.45.45 0 0 1-.25-.07L267 112a.5.5 0 0 1-.18-.68.51.51 0 0 1 .69-.18l1.72 1a.5.5 0 0 1-.25.93Zm-3.45-2a.52.52 0 0 1-.25-.07l-1.73-1a.51.51 0 0 1-.18-.69.51.51 0 0 1 .69-.18l1.72 1a.51.51 0 0 1 .18.69.5.5 0 0 1-.4.12Zm-3.45-2a.43.43 0 0 1-.25-.07l-1.73-1a.49.49 0 0 1-.18-.68.51.51 0 0 1 .69-.18l1.72 1a.51.51 0 0 1 .18.69.49.49 0 0 1-.4.08Zm-3.45-2a.43.43 0 0 1-.25-.07l-1.73-1a.5.5 0 1 1 .51-.86l1.72 1a.5.5 0 0 1-.25.93Zm-3.45-2a.51.51 0 0 1-.25-.06l-1.73-1a.49.49 0 0 1-.18-.68.51.51 0 0 1 .69-.18l1.72 1a.51.51 0 0 1 .18.69.49.49 0 0 1-.4.02Z" style="fill:url(#radial-gradient-36);mix-blend-mode:screen"/><path d="M208.21 56.91h-.16l-.64-.22a.5.5 0 0 1-.32-.63.51.51 0 0 1 .64-.31l.64.22a.49.49 0 0 1 .32.63.5.5 0 0 1-.48.31Zm-2.54-.86h-.16l-1.89-.64a.5.5 0 0 1-.32-.63.51.51 0 0 1 .64-.31l1.89.64a.5.5 0 0 1-.16 1Zm-3.79-1.28a.45.45 0 0 1-.16 0l-1.89-.64a.51.51 0 0 1-.32-.63.52.52 0 0 1 .64-.32l1.89.65a.5.5 0 0 1-.16 1Zm-3.79-1.28h-.16l-1.93-.67a.5.5 0 0 1-.31-.63.5.5 0 0 1 .63-.32l1.89.64a.5.5 0 0 1-.16 1Zm-3.79-1.28h-.16l-1.89-.64a.5.5 0 0 1-.31-.63.49.49 0 0 1 .63-.32l1.89.64a.5.5 0 0 1 .32.64.52.52 0 0 1-.48.31Zm-3.78-1.28a.41.41 0 0 1-.16 0l-1.9-.64a.5.5 0 0 1-.31-.64.5.5 0 0 1 .63-.31l1.9.64a.5.5 0 0 1 .31.64.52.52 0 0 1-.47.31Zm-3.79-1.29a.41.41 0 0 1-.16 0l-1.9-.64a.5.5 0 0 1 .33-1l1.9.64a.5.5 0 0 1-.16 1Zm-3.79-1.28h-.16l-1.9-.64a.51.51 0 0 1-.31-.64.5.5 0 0 1 .63-.31l1.9.64a.5.5 0 0 1-.16 1Zm-3.79-1.28a.41.41 0 0 1-.16 0l-1.9-.64a.5.5 0 0 1 .32-.94l1.9.64a.5.5 0 0 1-.16 1Zm-3.79-1.28a.45.45 0 0 1-.16 0l-1.9-.64a.5.5 0 1 1 .32-.94l1.9.64a.5.5 0 0 1-.16 1Z" style="fill:url(#radial-gradient-37);mix-blend-mode:screen"/></g><g class="cls-78"><path d="M116.32 38.06h-.18c-7.38-2.9-12.49-7.21-13.44-18.81l-.26-3.12a.48.48 0 0 1 .25-.47l.18-.1A42.89 42.89 0 0 0 116 3.28a1.07 1.07 0 0 1 .16-.14.66.66 0 0 1 .41-.08c3.74.84 8.32-.19 12.91-2.88l.18-.11a.49.49 0 0 1 .52 0 .47.47 0 0 1 .23.46L130.14 4c-.94 12.52-6 22.56-13.21 33.78a.52.52 0 0 1-.17.16l-.19.1a.43.43 0 0 1-.25.02Zm-12.86-21.72.23 2.8c.9 10.93 5.65 15.08 12.53 17.84 7.1-11 12-20.87 12.92-33.1l.19-2.48c-4.48 2.49-9 3.44-12.7 2.7a43.75 43.75 0 0 1-13.17 12.24Z" style="fill:url(#radial-gradient-38);mix-blend-mode:screen"/><path d="M116.37 29.46a.57.57 0 0 1-.18 0c-4.58-1.8-6.62-4.65-7-9.84L109 18a.48.48 0 0 1 .25-.47l.09-.05a21.71 21.71 0 0 0 6.66-6.22.67.67 0 0 1 .15-.14.67.67 0 0 1 .39-.07A9.11 9.11 0 0 0 123 9.61l.1-.06a.49.49 0 0 1 .51 0 .5.5 0 0 1 .24.46l-.13 1.75c-.49 6.46-3.07 11.63-6.81 17.41a.49.49 0 0 1-.16.16l-.1.06a.54.54 0 0 1-.28.07ZM110 18.23l.1 1.28c.44 5.37 2.74 7.47 6.08 8.85 3.56-5.54 6-10.52 6.47-16.67l.06-.82a9.89 9.89 0 0 1-6.12 1.22 22.69 22.69 0 0 1-6.59 6.14Z" style="fill:url(#radial-gradient-39);mix-blend-mode:screen"/></g><g class="cls-78"><path d="M42.1 88.83a.55.55 0 0 1-.25-.07.5.5 0 0 1-.25-.43V76.4a.5.5 0 0 1 .25-.43l5.2-3a.5.5 0 0 1 .5 0 .5.5 0 0 1 .25.43v11.93a.5.5 0 0 1-.25.43l-5.2 3a.55.55 0 0 1-.25.07Zm.5-12.14v10.77L46.8 85V74.27Z" style="fill:url(#radial-gradient-40);mix-blend-mode:screen"/><path d="M50.33 84.08a.52.52 0 0 1-.25-.07.48.48 0 0 1-.25-.43V61.71a.48.48 0 0 1 .25-.43l5.19-3a.5.5 0 0 1 .5 0 .48.48 0 0 1 .25.43v21.87a.48.48 0 0 1-.25.43l-5.19 3a.59.59 0 0 1-.25.07Zm.5-22.08v20.71L55 80.29V59.58Z" style="fill:url(#radial-gradient-41);mix-blend-mode:screen"/><path d="M58.56 79.33a.52.52 0 0 1-.25-.07.48.48 0 0 1-.25-.43V47a.5.5 0 0 1 .25-.44l5.19-3a.5.5 0 0 1 .75.44v31.8a.48.48 0 0 1-.25.43l-5.19 3a.59.59 0 0 1-.25.1Zm.5-32V78l4.19-2.42V44.89Z" style="fill:url(#radial-gradient-42);mix-blend-mode:screen"/></g></g></g></g></svg>