<?xml version="1.0" encoding="utf-8"?>
<!-- Generator: Adobe Illustrator 23.0.1, SVG Export Plug-In . SVG Version: 6.00 Build 0)  -->
<svg version="1.1" id="layer_1" xmlns="http://www.w3.org/2000/svg" xmlns:xlink="http://www.w3.org/1999/xlink" x="0px" y="0px"
	 viewBox="0 0 200 200" style="enable-background:new 0 0 200 200;" xml:space="preserve">
<style type="text/css">
	.st0{fill:#797f8c;}
	.st1{fill:#f7c219;}
</style>
<path class="st0" d="M178,21.1L103.6,0.5c-2.2-0.6-4.6-0.6-6.9,0L22.3,21.1c-6.2,1.2-10,6.2-10,12.5v61.3c0,50,35.6,93.8,85,104.4
	c1.8,0.6,3.8,0.6,5.6,0c48.8-10.6,84.4-53.8,84.4-104.4V33.6C187.4,27.4,183.6,22.4,178,21.1z"/>
<path class="st1" d="M131.3,80.1V69.4c0-17.7-14.4-32.1-32.1-32.1S67,51.6,67,69.4v10.7c-5.9,0-10.7,4.8-10.7,10.7v42.8
	c0,5.9,4.8,10.7,10.7,10.7h64.3c5.9,0,10.7-4.8,10.7-10.7V90.8C142,84.9,137.2,80.1,131.3,80.1z M77.8,69.4
	c0-11.8,9.6-21.4,21.4-21.4c11.8,0,21.4,9.6,21.4,21.4v10.7H77.8V69.4z M109.9,117.6c0,3-2.4,5.4-5.4,5.4c0,0,0,0,0,0H93.8
	c-3,0-5.4-2.4-5.4-5.4l0,0v-10.7c0-3,2.4-5.4,5.4-5.4l0,0h10.7c3,0,5.4,2.4,5.4,5.4c0,0,0,0,0,0V117.6z"/>
</svg>
