<?xml version="1.0" encoding="utf-8"?>
<!-- Generator: Adobe Illustrator 23.0.1, SVG Export Plug-In . SVG Version: 6.00 Build 0)  -->
<svg version="1.1" id="layer_1" xmlns="http://www.w3.org/2000/svg" xmlns:xlink="http://www.w3.org/1999/xlink" x="0px" y="0px"
	 viewBox="0 0 200.4 200" style="enable-background:new 0 0 200.4 200;" xml:space="preserve">
<style type="text/css">
	.st0{fill:#797f8c;}
	.st1{fill:#f7c219;}
</style>
<path class="st0" d="M179.4,71.3c-11-34.2-43-57.8-79.2-57.8S31.9,37.1,21,71.3C9,73.6,0,84.1,0,96.7s9,23.1,21,25.4
	c4.6,14.3,13,27.1,24.4,37.1c11.7,10.3,25.8,17,41,19.5c2.7,4.9,7.9,8.2,13.9,8.2c8.7,0,15.9-7.1,15.9-15.8s-7.1-15.8-15.9-15.8
	C93,155.2,87,160,85,166.5c-11.8-2.6-22.7-8.1-31.9-16.1c-8.7-7.7-15.4-17.2-19.5-27.8h5.5V70.9h-5.5c10.6-27.2,36.9-45.6,66.6-45.6
	s56.1,18.4,66.6,45.6h-5.5v51.7h13.2c14.2,0,25.8-11.6,25.8-25.8C200.4,84.1,191.3,73.6,179.4,71.3z"/>
<path class="st1" d="M100.2,41.2c-31.5,0-56.9,26.4-55.4,58.2c1.3,28.4,24.4,51.5,52.8,52.8c31.8,1.5,58.2-24,58.2-55.4
	C155.7,66.1,130.8,41.2,100.2,41.2L100.2,41.2z M100.2,128.7c-15.9,0-29.2-11.7-31.6-27.1c-0.4-2.6,1.6-4.9,4.2-4.9h3.5
	c2,0,3.7,1.5,4.1,3.5c1.7,9.5,10,16.7,19.9,16.7s18.2-7.3,19.9-16.7c0.4-2,2.2-3.5,4.3-3.5h3.3c2.5,0,4.5,2.3,4.1,4.8
	C129.5,116.8,116.2,128.7,100.2,128.7z"/>
</svg>
