<svg class="icon" viewBox="0 0 1586 1024" version="1.1" xmlns="http://www.w3.org/2000/svg" xmlns:xlink="http://www.w3.org/1999/xlink" width="309.765625" height="200">
  <path fill="#5dc787" d="M1140.050653 0C1096.137857 2.2528 1058.222569 43.895467 1060.497484 87.381333 1062.772402 130.935467 1104.892839 168.413867 1148.805639 166.161067L1281.647018 166.161067 869.128687 574.600532 659.42268 366.933332C641.430155 345.429332 610.27068 327.68 579.938449 331.434668 561.049742 333.892268 543.19509 342.903468 530.097083 356.5568L26.788874 854.971732C-7.472758 885.009068-9.127244 944.196268 23.273093 976.145068 55.742366 1008.0256 115.510647 1005.909332 145.636066 971.776L589.520678 532.206932 788.748278 729.4976C807.223365 749.226668 825.215891 773.666132 852.928522 777.762132 880.64115 781.9264 910.146137 771.140268 928.552286 750.250668L1400.425274 282.965333 1400.425274 415.402668C1399.804839 459.229868 1439.995045 499.643732 1484.321462 499.643732 1528.647881 499.643732 1568.838085 459.229868 1568.217653 415.402668L1568.217653 83.080533C1568.217653 39.594667 1528.303196 0 1484.321462 0L1140.050653 0" ></path>
</svg>
