<?xml version="1.0" encoding="utf-8"?>
<!-- Generator: Adobe Illustrator 23.0.1, SVG Export Plug-In . SVG Version: 6.00 Build 0)  -->
<svg version="1.1" id="layer_1" xmlns="http://www.w3.org/2000/svg" xmlns:xlink="http://www.w3.org/1999/xlink" x="0px" y="0px"
	 viewBox="0 0 43.4 39.3" style="enable-background:new 0 0 43.4 39.3;" xml:space="preserve">
<style type="text/css">
	.st0{fill:#626A77;}
	.st1{fill:#717A89;}
	.st2{fill:#F7C219;}
</style>
<title>资源 2</title>
<g>
	<g id="layer_2-2">
		<path class="st0" d="M15.4,16.7c0-0.6-0.5-1.1-1.1-1.1s-1.1,0.5-1.1,1.1s0.5,1.1,1.1,1.1l0,0C14.9,17.8,15.4,17.3,15.4,16.7"/>
		<path class="st0" d="M15.4,27.5c0-0.6-0.5-1.1-1.1-1.1l0,0c-0.6,0-1.1,0.5-1.1,1.1c0,0.6,0.5,1.1,1.1,1.1
			C14.9,28.5,15.4,28.1,15.4,27.5C15.4,27.5,15.4,27.5,15.4,27.5"/>
		<circle class="st0" cx="26.2" cy="22.1" r="4.3"/>
		<path class="st1" d="M36.9,4.8H15.4c-0.2,0-0.5,0-0.7,0c1.8,1,3.3,2.5,4.3,4.3h18c1.2,0,2.2,1,2.2,2.1v0v21.5
			c0,1.2-0.9,2.2-2.1,2.2c0,0-0.1,0-0.1,0H15.4c-1.2,0-2.2-1-2.2-2.2v-2.2c-1.2,0-2.1-1-2.1-2.1v-2.2c0-1.2,1-2.2,2.1-2.2v-0.9
			c-1,0.3-2.1,0.5-3.1,0.5c-0.4,0-0.7,0-1.1-0.1v9.1c0,3.6,2.9,6.5,6.5,6.5h21.5c3.6,0,6.5-2.9,6.5-6.5V11.3
			C43.4,7.7,40.5,4.9,36.9,4.8z"/>
		<path class="st0" d="M34.8,11.3h-15c1.1,4.2-0.7,8.7-4.4,11v2c1.2,0,2.2,1,2.1,2.2v2.1c0,1.2-1,2.1-2.1,2.1c0,1.2,1,2.2,2.1,2.2
			l0,0h17.2c1.2,0,2.2-1,2.2-2.1l0,0V13.5C36.9,12.3,36,11.3,34.8,11.3L34.8,11.3z M26.2,28.5c-3.6,0-6.5-2.9-6.5-6.4
			s2.9-6.5,6.4-6.5s6.5,2.9,6.5,6.4c0,0,0,0,0,0C32.6,25.6,29.7,28.5,26.2,28.5z"/>
		<circle class="st1" cx="10.2" cy="13.7" r="8.1"/>
	</g>
	<g id="layer_3">
		<rect x="20.9" y="0.5" transform="matrix(0.7071 -0.7071 0.7071 0.7071 5.2202 16.221)" class="st2" width="2.6" height="2.6"/>

			<rect x="5.4" y="23.6" transform="matrix(0.7071 -0.7071 0.7071 0.7071 -15.4595 11.5328)" class="st1" width="1.7" height="1.7"/>
		<rect x="0.3" y="6.6" transform="matrix(0.7071 -0.7071 0.7071 0.7071 -4.9083 3.015)" class="st2" width="1.7" height="1.7"/>
	</g>
</g>
</svg>
